<?xml version="1.0" encoding="UTF-8" standalone="no"?>
<svg
   xmlns:dc="http://purl.org/dc/elements/1.1/"
   xmlns:cc="http://creativecommons.org/ns#"
   xmlns:rdf="http://www.w3.org/1999/02/22-rdf-syntax-ns#"
   xmlns:svg="http://www.w3.org/2000/svg"
   xmlns="http://www.w3.org/2000/svg"
   viewBox="0 0 784.71271 290.17468"
   height="290.17468"
   width="784.71271"
   xml:space="preserve"
   id="svg6075"
   version="1.1"><metadata
     id="metadata6081"><rdf:RDF><cc:Work
         rdf:about=""><dc:format>image/svg+xml</dc:format><dc:type
           rdf:resource="http://purl.org/dc/dcmitype/StillImage" /><dc:title></dc:title></cc:Work></rdf:RDF></metadata><defs
     id="defs6079"><clipPath
       id="clipPath6101"
       clipPathUnits="userSpaceOnUse"><path
         style="clip-rule:evenodd"
         id="path6099"
         d="M 0,8254 H 4881.2665 V 5016.1876 H 0 Z" /></clipPath><clipPath
       id="clipPath6313"
       clipPathUnits="userSpaceOnUse"><path
         style="clip-rule:evenodd"
         id="path6311"
         d="M 0,8254 H 4881.2665 V 5016.1876 H 0 Z" /></clipPath><clipPath
       id="clipPath6333"
       clipPathUnits="userSpaceOnUse"><path
         style="clip-rule:evenodd"
         id="path6331"
         d="M 0,8254 H 4881.2665 V 5016.1876 H 0 Z" /></clipPath><clipPath
       id="clipPath6363"
       clipPathUnits="userSpaceOnUse"><path
         style="clip-rule:evenodd"
         id="path6361"
         d="M 0,8254 H 4881.2665 V 5016.1876 H 0 Z" /></clipPath><clipPath
       id="clipPath6383"
       clipPathUnits="userSpaceOnUse"><path
         style="clip-rule:evenodd"
         id="path6381"
         d="M 0,8254 H 4881.2665 V 5016.1876 H 0 Z" /></clipPath><clipPath
       id="clipPath6405"
       clipPathUnits="userSpaceOnUse"><path
         style="clip-rule:evenodd"
         id="path6403"
         d="M 4983.6557,8254 H 9866 V 5016.1876 H 4983.6557 Z" /></clipPath><clipPath
       id="clipPath6615"
       clipPathUnits="userSpaceOnUse"><path
         style="clip-rule:evenodd"
         id="path6613"
         d="M 4983.6557,8254 H 9866 V 5016.1876 H 4983.6557 Z" /></clipPath><clipPath
       id="clipPath6635"
       clipPathUnits="userSpaceOnUse"><path
         style="clip-rule:evenodd"
         id="path6633"
         d="M 4983.6557,8254 H 9866 V 5016.1876 H 4983.6557 Z" /></clipPath><clipPath
       id="clipPath6665"
       clipPathUnits="userSpaceOnUse"><path
         style="clip-rule:evenodd"
         id="path6663"
         d="M 4983.6557,8254 H 9866 V 5016.1876 H 4983.6557 Z" /></clipPath><clipPath
       id="clipPath6685"
       clipPathUnits="userSpaceOnUse"><path
         style="clip-rule:evenodd"
         id="path6683"
         d="M 4983.6557,8254 H 9866 V 5016.1876 H 4983.6557 Z" /></clipPath></defs><g
     transform="matrix(1.3333333,0,0,-1.3333333,-14.228791,672.50999)"
     id="g6083"><g
       transform="matrix(0.06,0,0,-0.06,10.02,781.98)"
       id="g6085"><g
         id="g6087"><g
           id="g6089" /></g><g
         id="g6091"><g
           id="g6093" /></g><g
         id="g6095"><g
           clip-path="url(#clipPath6101)"
           id="g6097"><g
             id="g6103" /><g
             transform="matrix(1.0777802,0,0,-1.0778337,462.36771,26842.32)"
             id="g6105"><path
               id="path6107"
               style="fill:none;stroke:#b8b8b8;stroke-width:7;stroke-linecap:square;stroke-linejoin:bevel;stroke-miterlimit:10;stroke-dasharray:none;stroke-opacity:1"
               d="m 787,17750 v 2375" /><path
               id="path6109"
               style="fill:none;stroke:#b8b8b8;stroke-width:7;stroke-linecap:square;stroke-linejoin:bevel;stroke-miterlimit:10;stroke-dasharray:none;stroke-opacity:1"
               d="m 1322,17750 v 2375" /><path
               id="path6111"
               style="fill:none;stroke:#b8b8b8;stroke-width:7;stroke-linecap:square;stroke-linejoin:bevel;stroke-miterlimit:10;stroke-dasharray:none;stroke-opacity:1"
               d="m 1858,17750 v 2375" /><path
               id="path6113"
               style="fill:none;stroke:#b8b8b8;stroke-width:7;stroke-linecap:square;stroke-linejoin:bevel;stroke-miterlimit:10;stroke-dasharray:none;stroke-opacity:1"
               d="m 2394,17750 v 2375" /><path
               id="path6115"
               style="fill:none;stroke:#b8b8b8;stroke-width:7;stroke-linecap:square;stroke-linejoin:bevel;stroke-miterlimit:10;stroke-dasharray:none;stroke-opacity:1"
               d="m 2930,17750 v 2375" /><path
               id="path6117"
               style="fill:none;stroke:#b8b8b8;stroke-width:7;stroke-linecap:square;stroke-linejoin:bevel;stroke-miterlimit:10;stroke-dasharray:none;stroke-opacity:1"
               d="m 3465,17750 v 2375" /><path
               id="path6119"
               style="fill:none;stroke:#000000;stroke-width:7;stroke-linecap:square;stroke-linejoin:bevel;stroke-miterlimit:10;stroke-dasharray:none;stroke-opacity:1"
               d="m 251,17650 v 2475" /><path
               id="path6121"
               style="fill:none;stroke:#000000;stroke-width:7;stroke-linecap:square;stroke-linejoin:bevel;stroke-miterlimit:10;stroke-dasharray:none;stroke-opacity:1"
               d="m 518,17700 v 50" /><path
               id="path6123"
               style="fill:none;stroke:#000000;stroke-width:7;stroke-linecap:square;stroke-linejoin:bevel;stroke-miterlimit:10;stroke-dasharray:none;stroke-opacity:1"
               d="m 787,17750 v -100" /><path
               id="path6125"
               style="fill:none;stroke:#000000;stroke-width:7;stroke-linecap:square;stroke-linejoin:bevel;stroke-miterlimit:10;stroke-dasharray:none;stroke-opacity:1"
               d="m 1054,17700 v 50" /><path
               id="path6127"
               style="fill:none;stroke:#000000;stroke-width:7;stroke-linecap:square;stroke-linejoin:bevel;stroke-miterlimit:10;stroke-dasharray:none;stroke-opacity:1"
               d="m 1322,17750 v -100" /><path
               id="path6129"
               style="fill:none;stroke:#000000;stroke-width:7;stroke-linecap:square;stroke-linejoin:bevel;stroke-miterlimit:10;stroke-dasharray:none;stroke-opacity:1"
               d="m 1589,17700 v 50" /><path
               id="path6131"
               style="fill:none;stroke:#000000;stroke-width:7;stroke-linecap:square;stroke-linejoin:bevel;stroke-miterlimit:10;stroke-dasharray:none;stroke-opacity:1"
               d="m 1858,17750 v -100" /><path
               id="path6133"
               style="fill:none;stroke:#000000;stroke-width:7;stroke-linecap:square;stroke-linejoin:bevel;stroke-miterlimit:10;stroke-dasharray:none;stroke-opacity:1"
               d="m 2125,17700 v 50" /><path
               id="path6135"
               style="fill:none;stroke:#000000;stroke-width:7;stroke-linecap:square;stroke-linejoin:bevel;stroke-miterlimit:10;stroke-dasharray:none;stroke-opacity:1"
               d="m 2394,17750 v -100" /><path
               id="path6137"
               style="fill:none;stroke:#000000;stroke-width:7;stroke-linecap:square;stroke-linejoin:bevel;stroke-miterlimit:10;stroke-dasharray:none;stroke-opacity:1"
               d="m 2661,17700 v 50" /><path
               id="path6139"
               style="fill:none;stroke:#000000;stroke-width:7;stroke-linecap:square;stroke-linejoin:bevel;stroke-miterlimit:10;stroke-dasharray:none;stroke-opacity:1"
               d="m 2930,17750 v -100" /><path
               id="path6141"
               style="fill:none;stroke:#000000;stroke-width:7;stroke-linecap:square;stroke-linejoin:bevel;stroke-miterlimit:10;stroke-dasharray:none;stroke-opacity:1"
               d="m 3197,17700 v 50" /><path
               id="path6143"
               style="fill:none;stroke:#000000;stroke-width:7;stroke-linecap:square;stroke-linejoin:bevel;stroke-miterlimit:10;stroke-dasharray:none;stroke-opacity:1"
               d="m 3465,17750 v -100" /><path
               id="path6145"
               style="fill:none;stroke:#000000;stroke-width:7;stroke-linecap:square;stroke-linejoin:bevel;stroke-miterlimit:10;stroke-dasharray:none;stroke-opacity:1"
               d="m 3732,17700 v 50" /><path
               id="path6147"
               style="fill:none;stroke:#000000;stroke-width:7;stroke-linecap:square;stroke-linejoin:bevel;stroke-miterlimit:10;stroke-dasharray:none;stroke-opacity:1"
               d="m 4001,17650 v 2475" /></g><g
             transform="matrix(4.8284553,0,0,4.8286949,1277.1695,7944.2306)"
             id="g6149"><g
               id="g6151"><text
                 id="text6155"
                 style="font-variant:normal;font-weight:normal;font-size:25px;font-family:Arial;-inkscape-font-specification:ArialForCAE;writing-mode:lr-tb;fill:#000000;fill-opacity:1;fill-rule:nonzero;stroke:none"><tspan
                   id="tspan6153"
                   y="0"
                   x="0">2</tspan></text>
</g></g><g
             transform="matrix(4.8284553,0,0,4.8286949,1853.782,7944.2306)"
             id="g6157"><g
               id="g6159"><text
                 id="text6163"
                 style="font-variant:normal;font-weight:normal;font-size:25px;font-family:Arial;-inkscape-font-specification:ArialForCAE;writing-mode:lr-tb;fill:#000000;fill-opacity:1;fill-rule:nonzero;stroke:none"><tspan
                   id="tspan6161"
                   y="0"
                   x="0">4</tspan></text>
</g></g><g
             transform="matrix(4.8284553,0,0,4.8286949,2431.4721,7944.2306)"
             id="g6165"><g
               id="g6167"><text
                 id="text6171"
                 style="font-variant:normal;font-weight:normal;font-size:25px;font-family:Arial;-inkscape-font-specification:ArialForCAE;writing-mode:lr-tb;fill:#000000;fill-opacity:1;fill-rule:nonzero;stroke:none"><tspan
                   id="tspan6169"
                   y="0"
                   x="0">6</tspan></text>
</g></g><g
             transform="matrix(4.8284553,0,0,4.8286949,3009.1623,7944.2306)"
             id="g6173"><g
               id="g6175"><text
                 id="text6179"
                 style="font-variant:normal;font-weight:normal;font-size:25px;font-family:Arial;-inkscape-font-specification:ArialForCAE;writing-mode:lr-tb;fill:#000000;fill-opacity:1;fill-rule:nonzero;stroke:none"><tspan
                   id="tspan6177"
                   y="0"
                   x="0">8</tspan></text>
</g></g><g
             transform="matrix(4.8284553,0,0,4.8286949,3553.4413,7944.2306)"
             id="g6181"><g
               id="g6183"><text
                 id="text6187"
                 style="font-variant:normal;font-weight:normal;font-size:25px;font-family:Arial;-inkscape-font-specification:ArialForCAE;writing-mode:lr-tb;fill:#000000;fill-opacity:1;fill-rule:nonzero;stroke:none"><tspan
                   id="tspan6185"
                   y="0"
                   x="0 13.890625">10</tspan></text>
</g></g><g
             transform="matrix(4.8284553,0,0,4.8286949,4130.0537,7944.2306)"
             id="g6189"><g
               id="g6191"><text
                 id="text6195"
                 style="font-variant:normal;font-weight:normal;font-size:25px;font-family:Arial;-inkscape-font-specification:ArialForCAE;writing-mode:lr-tb;fill:#000000;fill-opacity:1;fill-rule:nonzero;stroke:none"><tspan
                   id="tspan6193"
                   y="0"
                   x="0 13.890625">12</tspan></text>
</g></g><g
             transform="matrix(4.8284553,0,0,4.8286949,699.47935,7944.2306)"
             id="g6197"><g
               id="g6199"><text
                 id="text6203"
                 style="font-variant:normal;font-weight:normal;font-size:25px;font-family:Arial;-inkscape-font-specification:ArialForCAE;writing-mode:lr-tb;fill:#000000;fill-opacity:1;fill-rule:nonzero;stroke:none"><tspan
                   id="tspan6201"
                   y="0"
                   x="0">0</tspan></text>
</g></g><g
             transform="matrix(4.8284553,0,0,4.8286949,4707.7439,7944.2306)"
             id="g6205"><g
               id="g6207"><text
                 id="text6211"
                 style="font-variant:normal;font-weight:normal;font-size:25px;font-family:Arial;-inkscape-font-specification:ArialForCAE;writing-mode:lr-tb;fill:#000000;fill-opacity:1;fill-rule:nonzero;stroke:none"><tspan
                   id="tspan6209"
                   y="0"
                   x="0 13.890625">14</tspan></text>
</g></g><g
             transform="matrix(1.0777802,0,0,-1.0778337,462.36771,26842.32)"
             id="g6213"><path
               id="path6215"
               style="fill:none;stroke:#b8b8b8;stroke-width:7;stroke-linecap:square;stroke-linejoin:bevel;stroke-miterlimit:10;stroke-dasharray:none;stroke-opacity:1"
               d="M 251,18146 H 4001" /><path
               id="path6217"
               style="fill:none;stroke:#b8b8b8;stroke-width:7;stroke-linecap:square;stroke-linejoin:bevel;stroke-miterlimit:10;stroke-dasharray:none;stroke-opacity:1"
               d="M 251,18542 H 4001" /><path
               id="path6219"
               style="fill:none;stroke:#b8b8b8;stroke-width:7;stroke-linecap:square;stroke-linejoin:bevel;stroke-miterlimit:10;stroke-dasharray:none;stroke-opacity:1"
               d="M 251,18937 H 4001" /><path
               id="path6221"
               style="fill:none;stroke:#b8b8b8;stroke-width:7;stroke-linecap:square;stroke-linejoin:bevel;stroke-miterlimit:10;stroke-dasharray:none;stroke-opacity:1"
               d="M 251,19333 H 4001" /><path
               id="path6223"
               style="fill:none;stroke:#b8b8b8;stroke-width:7;stroke-linecap:square;stroke-linejoin:bevel;stroke-miterlimit:10;stroke-dasharray:none;stroke-opacity:1"
               d="M 251,19729 H 4001" /><path
               id="path6225"
               style="fill:none;stroke:#000000;stroke-width:7;stroke-linecap:square;stroke-linejoin:bevel;stroke-miterlimit:10;stroke-dasharray:none;stroke-opacity:1"
               d="M 151,17750 H 4001" /><path
               id="path6227"
               style="fill:none;stroke:#000000;stroke-width:7;stroke-linecap:square;stroke-linejoin:bevel;stroke-miterlimit:10;stroke-dasharray:none;stroke-opacity:1"
               d="m 201,17947 h 50" /><path
               id="path6229"
               style="fill:none;stroke:#000000;stroke-width:7;stroke-linecap:square;stroke-linejoin:bevel;stroke-miterlimit:10;stroke-dasharray:none;stroke-opacity:1"
               d="M 151,18146 H 251" /><path
               id="path6231"
               style="fill:none;stroke:#000000;stroke-width:7;stroke-linecap:square;stroke-linejoin:bevel;stroke-miterlimit:10;stroke-dasharray:none;stroke-opacity:1"
               d="m 201,18343 h 50" /><path
               id="path6233"
               style="fill:none;stroke:#000000;stroke-width:7;stroke-linecap:square;stroke-linejoin:bevel;stroke-miterlimit:10;stroke-dasharray:none;stroke-opacity:1"
               d="M 151,18542 H 251" /><path
               id="path6235"
               style="fill:none;stroke:#000000;stroke-width:7;stroke-linecap:square;stroke-linejoin:bevel;stroke-miterlimit:10;stroke-dasharray:none;stroke-opacity:1"
               d="m 201,18739 h 50" /><path
               id="path6237"
               style="fill:none;stroke:#000000;stroke-width:7;stroke-linecap:square;stroke-linejoin:bevel;stroke-miterlimit:10;stroke-dasharray:none;stroke-opacity:1"
               d="M 151,18937 H 251" /><path
               id="path6239"
               style="fill:none;stroke:#000000;stroke-width:7;stroke-linecap:square;stroke-linejoin:bevel;stroke-miterlimit:10;stroke-dasharray:none;stroke-opacity:1"
               d="m 201,19134 h 50" /><path
               id="path6241"
               style="fill:none;stroke:#000000;stroke-width:7;stroke-linecap:square;stroke-linejoin:bevel;stroke-miterlimit:10;stroke-dasharray:none;stroke-opacity:1"
               d="M 151,19333 H 251" /><path
               id="path6243"
               style="fill:none;stroke:#000000;stroke-width:7;stroke-linecap:square;stroke-linejoin:bevel;stroke-miterlimit:10;stroke-dasharray:none;stroke-opacity:1"
               d="m 201,19530 h 50" /><path
               id="path6245"
               style="fill:none;stroke:#000000;stroke-width:7;stroke-linecap:square;stroke-linejoin:bevel;stroke-miterlimit:10;stroke-dasharray:none;stroke-opacity:1"
               d="M 151,19729 H 251" /><path
               id="path6247"
               style="fill:none;stroke:#000000;stroke-width:7;stroke-linecap:square;stroke-linejoin:bevel;stroke-miterlimit:10;stroke-dasharray:none;stroke-opacity:1"
               d="m 201,19926 h 50" /><path
               id="path6249"
               style="fill:none;stroke:#000000;stroke-width:7;stroke-linecap:square;stroke-linejoin:bevel;stroke-miterlimit:10;stroke-dasharray:none;stroke-opacity:1"
               d="M 151,20125 H 4001" /></g><g
             transform="matrix(4.8284553,0,0,4.8286949,436.50098,7320.1649)"
             id="g6251"><g
               id="g6253"><text
                 id="text6257"
                 style="font-variant:normal;font-weight:normal;font-size:25px;font-family:Arial;-inkscape-font-specification:ArialForCAE;writing-mode:lr-tb;fill:#000000;fill-opacity:1;fill-rule:nonzero;stroke:none"><tspan
                   id="tspan6255"
                   y="0"
                   x="0 8.3125 22.203125">-50</tspan></text>
</g></g><g
             transform="matrix(4.8284553,0,0,4.8286949,436.50098,6893.3428)"
             id="g6259"><g
               id="g6261"><text
                 id="text6265"
                 style="font-variant:normal;font-weight:normal;font-size:25px;font-family:Arial;-inkscape-font-specification:ArialForCAE;writing-mode:lr-tb;fill:#000000;fill-opacity:1;fill-rule:nonzero;stroke:none"><tspan
                   id="tspan6263"
                   y="0"
                   x="0 8.3125 22.203125">-40</tspan></text>
</g></g><g
             transform="matrix(4.8284553,0,0,4.8286949,436.50098,6467.5985)"
             id="g6267"><g
               id="g6269"><text
                 id="text6273"
                 style="font-variant:normal;font-weight:normal;font-size:25px;font-family:Arial;-inkscape-font-specification:ArialForCAE;writing-mode:lr-tb;fill:#000000;fill-opacity:1;fill-rule:nonzero;stroke:none"><tspan
                   id="tspan6271"
                   y="0"
                   x="0 8.3125 22.203125">-30</tspan></text>
</g></g><g
             transform="matrix(4.8284553,0,0,4.8286949,436.50098,6040.7763)"
             id="g6275"><g
               id="g6277"><text
                 id="text6281"
                 style="font-variant:normal;font-weight:normal;font-size:25px;font-family:Arial;-inkscape-font-specification:ArialForCAE;writing-mode:lr-tb;fill:#000000;fill-opacity:1;fill-rule:nonzero;stroke:none"><tspan
                   id="tspan6279"
                   y="0"
                   x="0 8.3125 22.203125">-20</tspan></text>
</g></g><g
             transform="matrix(4.8284553,0,0,4.8286949,436.50098,5613.9542)"
             id="g6283"><g
               id="g6285"><text
                 id="text6289"
                 style="font-variant:normal;font-weight:normal;font-size:25px;font-family:Arial;-inkscape-font-specification:ArialForCAE;writing-mode:lr-tb;fill:#000000;fill-opacity:1;fill-rule:nonzero;stroke:none"><tspan
                   id="tspan6287"
                   y="0"
                   x="0 8.3125 22.203125">-10</tspan></text>
</g></g><g
             transform="matrix(4.8284553,0,0,4.8286949,436.50098,7746.987)"
             id="g6291"><g
               id="g6293"><text
                 id="text6297"
                 style="font-variant:normal;font-weight:normal;font-size:25px;font-family:Arial;-inkscape-font-specification:ArialForCAE;writing-mode:lr-tb;fill:#000000;fill-opacity:1;fill-rule:nonzero;stroke:none"><tspan
                   id="tspan6295"
                   y="0"
                   x="0 8.3125 22.203125">-60</tspan></text>
</g></g><g
             transform="matrix(4.8284553,0,0,4.8286949,544.279,5187.132)"
             id="g6299"><g
               id="g6301"><text
                 id="text6305"
                 style="font-variant:normal;font-weight:normal;font-size:25px;font-family:Arial;-inkscape-font-specification:ArialForCAE;writing-mode:lr-tb;fill:#000000;fill-opacity:1;fill-rule:nonzero;stroke:none"><tspan
                   id="tspan6303"
                   y="0"
                   x="0">0</tspan></text>
</g></g></g></g><g
         id="g6307"><g
           clip-path="url(#clipPath6313)"
           id="g6309"><g
             transform="matrix(1.0777802,0,0,-1.0778337,462.36771,26842.32)"
             id="g6315" /><g
             id="g6317"><path
               id="path6319"
               style="fill:#ff0000;fill-opacity:1;fill-rule:nonzero;stroke:none"
               d="m 732.89054,5973.3039 1.07778,21.5567 7.54446,-1.0778 -3.23334,-63.5922 -5.3889,1.0778 z" /><path
               id="path6321"
               style="fill:#ff0000;fill-opacity:1;fill-rule:nonzero;stroke:none"
               d="m 736.12388,6156.5357 -3.23334,-169.2199 7.54446,-1.0779 3.23334,169.2199 z" /></g><g
             transform="matrix(1.0777802,0,0,-1.0778337,462.36771,26842.32)"
             id="g6323"><path
               id="path6325"
               style="fill:none;stroke:#ff0000;stroke-width:7;stroke-linecap:square;stroke-linejoin:bevel;stroke-miterlimit:10;stroke-dasharray:none;stroke-opacity:1"
               d="m 258,19192 1,-76 3,-387 2,94 3,-171 3,174 2,-40 3,-461 3,-13 2,44 3,20 3,-40 3,-197 2,317 3,77 3,47 2,39 3,-483 3,400 2,23 3,-413 3,205 2,-47 3,-26 3,42 2,97 3,37 3,-133 2,-111 3,155 3,33 2,66 3,40 3,25 2,72 3,-75 3,2 2,73 3,72 3,33 3,-63 2,-68 3,24 3,7 2,-56 3,-11 3,47 2,-13 3,114 3,29 2,-17 3,8 3,-101 2,54 3,63 3,-10 2,-30 3,55 3,18 2,-25 3,18 3,15 2,13 3,4 3,-15 2,13 3,-9 3,17 3,58 2,-50 3,-16 3,17 2,35 3,16 3,-1 2,-15 3,-10 3,25 2,-18 3,1 3,7 2,1 3,36 3,-1 2,1 3,16 3,19 2,-21 3,-3 3,17 2,20 3,-50 3,-2 2,21 3,16 3,6 3,40 2,7 3,-28 3,8 2,19 3,-4 3,-2 2,45 3,-26 3,2 2,13 3,9 3,4 2,-8 3,-4 3,5 2,5 3,1 3,9 2,6 3,-15 3,23 2,9 3,5 3,11 2,-4 3,-1 3,-2 3,1 2,26 3,6 3,-1 h 2 l 3,13 3,10 2,-3 h 3 l 3,14 2,2 3,-1 3,6 2,12 3,3 3,-14 2,11 3,21 3,-7 2,11 3,22 3,11 2,-16 3,26 3,-12 h 2 l 3,21 h 3 l 3,-6 2,3 3,11 3,7 2,8 3,8 3,8 2,8 3,-6 3,4 2,7 3,7 3,2 2,11 3,8 3,6 2,10 3,1 3,4 2,6 3,8 3,8 2,8 3,6 3,4 2,-3 3,9 3,13 3,11 2,9 3,6 3,5 2,5 3,8 3,2 2,8 3,10 3,10 2,11 h 3 l 3,6 2,9 3,6 3,9 2,9 3,8 3,7 2,11 3,5 3,6 2,10 3,15 3,8 2,7 3,7 3,8 3,7 2,8 3,9 3,11 2,10 3,11 3,12 2,11 3,6 3,10 2,9 3,9 3,6 2,11 3,12 3,10 2,7 3,11 3,10 2,11 3,11 3,7 2,16 3,14 3,11 2,12 3,6 3,8 3,11 2,11 3,11 3,10 2,11 3,13 3,8 2,12 3,12 3,10 2,10 3,8 3,10 2,10 3,9 3,9 2,9 3,9 3,6 2,8 3,6 3,7 2,6 3,5 3,3 2,5 3,6 3,1 3,2 2,5 3,3 h 3 l 2,-1 3,1 3,1 2,1 3,-1 3,1 2,-1 3,-1 3,1 2,-1 3,-1 3,-1 2,-2 3,-3 h 3 l 2,-1 3,-1 3,-1 2,-2 3,-1 h 3 l 2,2 3,-2 3,-2 3,-1 h 2 l 3,-2 3,-1 2,1 3,1 3,-1 2,1 h 3 l 3,1 2,-1 3,-4 h 3 2 3 l 3,4 h 2 3 l 3,1 2,-1 3,2 3,1 2,1 3,1 3,-3 2,1 3,2 3,1 3,1 h 2 3 l 3,-1 2,1 3,2 3,-1 h 2 l 3,3 3,1 2,2 h 3 l 3,-1 2,1 3,1 3,-1 2,-1 3,4 3,1 2,1 h 3 3 2 3 l 3,1 2,-1 3,1 3,1 h 3 2 l 3,-1 3,2 h 2 3 l 3,1 2,1 h 3 l 3,-1 2,-2 h 3 l 3,1 h 2 3 l 3,2 h 2 3 3 2 l 3,1 h 3 2 l 3,-2 h 3 2 3 3 3 2 3 3 2 l 3,-2 3,1 2,1 3,1 3,-2 2,-1 h 3 l 3,-1 2,-1 3,3 3,1 h 2 3 l 3,-1 h 2 l 3,-1 3,1 2,2 h 3 l 3,-1 2,-2 h 3 3 3 2 l 3,1 h 3 2 l 3,-1 h 3 2 l 3,1 h 3 l 2,-2 3,-2 h 3 l 2,1 3,1 3,-1 h 2 l 3,-1 h 3 l 2,-2 h 3 3 l 2,-1 h 3 3 l 2,-1 3,1 h 3 l 3,-2 2,1 h 3 l 3,-1 2,-1 3,-1 3,-2 h 2 l 3,1 3,-1 2,-1 3,1 3,-1 2,-2 3,-1 3,1 h 2 l 3,-2 3,2 2,-2 3,-2 3,-2 2,-2 h 3 l 3,-1 2,-2 h 3 l 3,-1 h 3 l 2,-2 3,-5 3,2 2,-2 3,-2 3,-1 2,-1 3,-4 3,-1 2,1 3,-1 3,-2 2,-3 3,-4 3,-2 h 2 3 l 3,-1 2,-2 3,-2 3,-1 2,-3 3,-4 3,-2 2,-3 3,-3 3,-3 3,-4 2,2 3,1 3,-2 2,-2 3,-2 3,-1 2,-3 3,-4 3,-1 2,-4 3,-3 3,-2 2,-1 3,-1 3,-2 2,-3 3,-2 3,2 2,-4 3,-3 3,-2 2,-1 3,-3 3,-3 2,-4 h 3 3 l 3,-1 h 2 l 3,2 3,-5 h 2 l 3,-2 3,-2 2,-1 3,1 3,-1 2,-1 3,-2 h 3 2 l 3,-1 3,-1 2,1 3,-1 3,-1 2,-1 h 3 l 3,-2 2,1 3,3 3,1 2,1 h 3 l 3,-2 3,-4 2,-1 3,-1 h 3 l 2,1 h 3 l 3,1 h 2 l 3,-1 3,-2 2,1 h 3 3 l 2,1 3,1 3,-1 h 2 3 3 l 2,-2 3,-1 h 3 2 l 3,-1 3,-2 2,-1 h 3 l 3,-2 3,3 2,2 h 3 l 3,-4 2,1 3,-1 3,-1 h 2 l 3,-3 3,1 2,1 h 3 3 2 3 l 3,-1 2,1 3,-2 3,2 2,2 h 3 l 3,4 2,-2 h 3 l 3,3 2,4 3,2 3,2 3,2 2,3 3,-1 3,1 2,3 3,2 3,1 2,2 3,2 3,1 2,2 3,3 3,4 2,3 3,4 h 3 l 2,2 3,2 3,2 2,4 3,5 3,5 2,5 3,2 3,1 2,2 3,2 3,3 3,4 2,2 3,1 3,2 2,2 3,5 3,3 2,3 3,1 3,2 2,2 3,1 3,3 2,1 h 3 l 3,1 2,2 h 3 l 3,1 h 2 l 3,-1 h 3 2 3 l 3,1 2,-2 3,-2 3,-2 3,-1 2,-1 3,-3 3,-2 2,-1 h 3 l 3,-1 2,-2 3,-3 3,-3 2,-3 3,-3 3,-2 h 2 l 3,-1 3,-3 2,-3 3,-2 3,-4 2,-1 3,-1 3,-3 2,-3 3,-5 3,-4 2,-2 3,-1 3,-2 3,-3 2,-2 3,-2 3,-1 2,-2 3,-2 3,-3 2,-2 3,-1 3,-3 2,-1 3,-1 3,-2 2,-3 3,-2 3,1 2,2 3,-4 3,-2 2,-1 h 3 l 3,-3 2,-1 3,-1 h 3 l 2,2 3,1 3,1 h 3 l 2,-1 h 3 l 3,2 2,1 h 3 3 l 2,-2 h 3 l 3,1 h 2 l 3,2 3,1 2,1 h 3 l 3,3 2,3 3,2 h 3 l 2,1 3,1 3,1 2,1 h 3 l 3,4 2,3 3,2 3,1 3,4 2,2 3,1 h 3 l 2,2 3,2 3,1 2,2 3,3 3,2 2,2 3,1 h 3 l 2,-2 3,4 3,3 2,2 3,-1 3,2 2,2 3,2 3,1 2,1 h 3 3 2 3 l 3,2 h 3 l 2,-1 h 3 3 l 2,1 h 3 3 l 2,-1 h 3 3 l 2,-1 3,-2 h 3 2 l 3,-2 3,-1 2,-2 3,-1 3,-1 2,-1 h 3 l 3,-2 2,-2 3,-1 3,-1 2,1 h 3 l 3,-3 3,-1 h 2 3 l 3,-2 2,-3 3,-1 3,1 h 2 l 3,-2 h 3 l 2,-3 3,-1 3,1 h 2 3 l 3,-2 2,-2 3,2 3,-2 h 2 l 3,1 3,-1 2,-1 3,1 h 3 l 2,-2 3,1 h 3 l 3,-1 2,-1 3,-1 h 3 l 2,1 h 3 l 3,-2 2,1 3,-2 3,-2 2,-2 h 3 l 3,-1 2,-2 3,-3 3,-2 2,-4 3,-2 3,-2 2,-1 3,-3 3,-4 2,-5 3,-3 3,-3 2,-5 3,-5 3,-4 3,-5 2,-6 3,-5 3,-5 2,-4 3,-5 3,-6 2,-6 3,-5 3,-6 2,-6 3,-7 3,-6 2,-6 3,-6 3,-4 2,-4 3,-5 3,-2 2,-6 3,-4 3,-3 2,-5 3,-6 3,-5 2,-4 3,-3 3,-5 3,-4 2,-3 h 3 l 3,-3 2,-3 3,-2 3,-2 2,-6 3,-1 3,-1 2,-1 h 3 l 3,-1 2,-1 h 3 3 l 2,-1 h 3 3 l 2,1 3,1 h 3 l 2,-1 h 3 l 3,1 2,2 3,1 3,2 3,3 2,2 3,2 3,3 2,2 3,5 3,4 2,1 3,1 3,5 2,4 3,6 3,6 2,7 3,4 3,5 2,5 3,5 3,4 2,7 3,8 3,7 2,6 3,6 3,8 2,7 3,8 3,10 3,4 2,5 3,7 3,8 2,8 3,9 3,9 2,8 3,3 3,4 2,5 3,5 3,4 2,3 3,2 3,3 2,2 3,2 h 3 l 2,-2 3,-1 3,-3 2,-3 3,-4 3,-2 2,-5 3,-5 3,-5 3,-7 2,-8 3,-6 3,-5 2,-6 3,-8 3,-5 2,-7 3,-7 3,-5 2,-5 3,-5 3,-6 2,-7 3,-6 3,-4 2,-5 3,-7 3,-4 2,-5 3,-3 3,-2 2,-3 3,-7 3,-4 2,-4 3,-3 3,-3 3,-1 2,-2 3,-2 3,-3 2,1 3,-1 3,-2 2,-2 3,-1 3,1 h 2 l 3,1 3,-3 2,1 3,2 3,1 2,3 3,2 3,2 2,1 3,1 3,2 2,3 3,4 3,4 2,2 3,3 3,4 3,5 2,6 3,5 3,6 2,4 3,3 3,6 2,5 3,6 3,7 2,5 3,6 3,6 2,6 3,7 3,6 2,6 3,7 3,8 2,8 3,7 3,7 2,8 3,9 3,6 2,4 3,4 3,7 3,6 2,4 3,2 3,4 2,3 3,3 3,2 2,2 h 3 l 3,-1 2,-2 3,-4 3,-4 2,-4 3,-6 3,-5 2,-6 3,-4 3,-7 2,-8 3,-8 3,-7 2,-8 3,-5 3,-5 2,-7 3,-12 3,-8 3,-8 2,-8 3,-5 3,-6 2,-6 3,-6 3,-5 2,-8 3,-6 3,-6 2,-6 3,-3 3,-5 2,-7 3,-5 3,-3 2,-3 3,-3 3,-4 2,-5 3,-6 3,-1 h 2 l 3,-5 3,-1 2,-3 3,-3 3,-5 h 3 l 2,-1 3,-1 3,1 2,3 h 3 l 3,-2 2,-2 3,-4 h 3 l 2,2 3,2 3,1 2,2 h 3 l 3,-1 2,-2 3,1 3,3 2,3 3,3 3,1 h 2 l 3,3 3,4 2,2 3,5 3,3 3,4 2,5 3,3 3,1 2,4 3,6 3,6 2,5 3,4 3,4 2,3 3,6 3,6 2,7 3,7 3,6 2,3 3,4 3,7 2,8 3,4 3,6 2,7 3,9 3,4 2,5 3,7 3,7 3,4 2,4 3,3 3,4 2,7 3,4 3,7 2,8 3,6 3,2 2,3 3,4 3,3 2,2 3,-2 3,2 2,4 3,3 h 3 l 2,1 h 3 l 3,-2 2,1 3,1 3,-2 2,-5 3,3 h 3 l 3,-1 2,-2 3,-1 3,-2 2,-2 3,-2 h 3 l 2,2 3,-1 3,-1 2,-2 3,-3 3,-4 2,-2 h 3 l 3,-1 2,-3 h 3 3 l 2,-1 3,1 3,1 2,-1 3,-5 3,1 2,-1 3,-1 3,-3 3,-3 2,-4 3,-4 3,-3 2,-3 3,-3 3,-5 2,-4 3,-4 3,-9 2,-5 3,-6 3,-7 2,-5 3,-10 3,-7 2,-8 3,-11 3,-10 2,-11 3,-10 3,-7 2,-8 3,-10 3,-11 2,-12 3,-10 3,-9 3,-9 2,-9 3,-8 3,-7 2,-11 3,-10 3,-11 2,-10 3,-7 3,-9 2,-9 3,-7 3,-8 2,-9 3,-7 3,-5 2,-7 3,-5 3,-6 2,-10 3,-7 3,-8 2,-5 3,-5 3,-11 2,-6 3,-4 3,-4 3,-5 2,-6 3,-7 3,-5 2,-4 3,-6 3,-5 2,-3 3,-4 3,-8 2,-3 3,-2 3,-3 2,-2 h 3 l 3,-4 2,-5 3,-2 3,-2 2,-3 3,-4 3,-4 2,-2 3,1 3,3 2,3 3,2" /></g></g></g><g
         id="g6327"><g
           clip-path="url(#clipPath6333)"
           id="g6329"><g
             transform="matrix(1.0777802,0,0,-1.0778337,462.36771,26842.32)"
             id="g6335" /></g></g><g
         id="g6337"><g
           transform="matrix(1.0777802,0,0,-1.0778337,462.36771,26842.32)"
           id="g6339" /><g
           transform="matrix(6.0355692,0,0,6.0358686,2431.4721,8223.8207)"
           id="g6341"><g
             id="g6343"><text
               id="text6347"
               style="font-variant:normal;font-weight:normal;font-size:25px;font-family:Arial;-inkscape-font-specification:ArialForCAE;writing-mode:lr-tb;fill:#000000;fill-opacity:1;fill-rule:nonzero;stroke:none"><tspan
                 id="tspan6345"
                 y="0"
                 x="0 6.9375 15.25 29.140625 43.03125 49.96875 56.90625 76.34375 94.390625">freq, GHz</tspan></text>
</g></g><g
           transform="matrix(0,-6.0358686,6.0355692,0,271.60061,6778.4457)"
           id="g6349"><g
             id="g6351"><text
               id="text6355"
               style="font-variant:normal;font-weight:normal;font-size:25px;font-family:Arial;-inkscape-font-specification:ArialForCAE;writing-mode:lr-tb;fill:#ff0000;fill-opacity:1;fill-rule:nonzero;stroke:none"><tspan
                 id="tspan6353"
                 y="0"
                 x="0 13.890625 30.5625 38.875 55.546875 63.859375 77.75 84.6875 98.578125 106.89062">dB(S(2,1))</tspan></text>
</g></g></g><g
         id="g6357"><g
           clip-path="url(#clipPath6363)"
           id="g6359"><g
             transform="matrix(1.0777802,0,0,-1.0778337,462.36771,26842.32)"
             id="g6365" /><g
             id="g6367"><path
               id="path6369"
               style="fill:#0000ff;fill-opacity:1;fill-rule:nonzero;stroke:none"
               d="m 732.89054,6251.385 1.07778,100.2385 7.54446,-1.0778 -3.23334,-301.7934 -5.3889,1.0778 z" /><path
               id="path6371"
               style="fill:#0000ff;fill-opacity:1;fill-rule:nonzero;stroke:none"
               d="m 736.12388,6444.3172 -3.23334,-100.2385 7.54446,-1.0778 3.23334,100.2385 z" /></g><g
             transform="matrix(1.0777802,0,0,-1.0778337,462.36771,26842.32)"
             id="g6373"><path
               id="path6375"
               style="fill:none;stroke:#0000ff;stroke-width:7;stroke-linecap:square;stroke-linejoin:bevel;stroke-miterlimit:10;stroke-dasharray:none;stroke-opacity:1"
               d="m 258,18925 1,-44 3,-99 2,-602 3,619 3,-60 2,-124 3,36 3,252 2,-79 3,-172 3,-201 3,71 2,-164 3,-30 3,81 2,75 3,-199 3,342 2,-14 3,-469 3,266 2,-303 3,-178 3,175 2,42 3,143 3,39 2,6 3,5 3,11 2,-59 3,-46 3,47 2,173 3,-138 3,89 2,124 3,-68 3,-65 3,-44 2,-14 3,7 3,-91 2,150 3,61 3,-30 2,-10 3,66 3,-4 2,-55 3,-46 3,68 2,-93 3,70 3,248 2,-80 3,-22 3,-21 2,-24 3,46 3,-25 2,-38 3,-28 3,6 2,109 3,14 3,2 3,36 2,2 3,-74 3,9 2,81 3,-60 3,-17 2,-8 3,9 3,43 2,9 3,-17 3,8 2,57 3,-15 3,-2 2,5 3,4 3,-17 2,28 3,4 3,-6 2,16 3,-20 3,28 2,19 3,-23 3,27 3,19 2,2 3,-12 3,-8 2,42 3,-8 3,-34 2,14 3,16 3,10 2,5 3,1 3,12 2,-12 3,-5 3,14 2,21 3,7 3,22 2,21 3,-4 3,-7 2,-4 3,-1 3,1 2,-8 3,13 3,26 3,20 2,-31 3,8 3,13 2,7 3,-9 3,19 2,1 3,-3 3,4 2,19 3,4 3,-1 2,-2 3,12 3,12 2,9 3,6 3,2 2,-13 3,-9 3,-1 2,7 3,42 3,13 2,-6 3,-14 3,10 3,-7 2,6 3,16 3,15 2,-6 3,10 3,10 2,-2 3,-10 3,10 2,10 3,6 3,6 2,4 3,6 3,6 2,-4 3,6 3,8 2,8 3,7 3,7 2,2 3,3 3,7 2,6 3,13 3,2 h 3 l 2,21 3,5 3,7 2,5 3,1 3,3 2,6 3,10 3,14 2,13 3,-5 3,1 2,9 3,3 3,6 2,10 3,11 3,7 2,4 3,7 3,8 2,9 3,13 3,5 2,7 3,9 3,9 3,6 2,6 3,6 3,8 2,10 3,10 3,9 2,8 3,3 3,10 2,11 3,10 3,6 2,13 3,10 3,8 2,11 3,6 3,11 2,11 3,9 3,9 2,14 3,14 3,13 2,11 3,5 3,9 3,13 2,15 3,10 3,10 2,11 3,13 3,13 2,14 3,13 3,13 2,16 3,8 3,13 2,15 3,15 3,15 2,14 3,14 3,13 2,15 3,15 3,15 2,14 3,16 3,12 2,12 3,13 3,12 3,11 2,12 3,9 3,8 2,7 3,6 3,5 2,3 3,3 3,2 2,-1 h 3 l 3,3 2,-3 3,-4 3,-4 2,-4 3,-4 3,-3 2,-4 3,-5 3,-7 2,-2 3,-5 3,-6 2,-5 3,-2 3,-2 3,-5 2,-7 3,-3 3,-5 2,-2 3,-1 3,-2 h 2 l 3,-1 3,-1 2,-4 3,-5 3,-3 2,-2 h 3 l 3,-2 2,2 3,-1 3,-2 2,2 3,1 3,1 2,1 3,-1 3,-1 2,2 3,1 h 3 l 3,3 2,1 3,2 3,2 h 2 l 3,1 3,1 2,3 3,4 3,1 2,3 3,4 3,3 2,1 3,3 3,3 2,4 3,4 3,4 2,4 3,4 3,2 2,2 3,2 3,3 2,4 3,4 3,5 3,4 2,1 3,2 3,4 2,4 3,5 3,5 2,2 3,2 3,3 2,3 3,2 3,2 2,2 3,4 3,4 h 2 3 l 3,2 2,2 3,4 3,2 2,1 h 3 l 3,-1 h 2 3 3 l 3,2 2,1 3,1 3,-1 2,-2 3,-1 h 3 l 2,-1 3,-2 3,-1 2,-2 3,-1 h 3 l 2,-1 3,-2 3,-1 h 2 3 l 3,-3 2,-2 3,-2 3,-1 2,2 3,-1 3,-2 2,-3 3,-4 h 3 l 3,-1 2,1 3,2 3,-6 2,1 3,1 3,-2 2,-1 3,-2 3,-1 2,-2 3,-1 h 3 l 2,-1 3,-1 3,1 2,2 3,-2 3,-3 2,-1 3,-1 h 3 l 2,-1 3,-1 3,3 h 2 3 l 3,1 3,-2 2,2 3,1 h 3 2 l 3,-1 h 3 2 l 3,1 3,1 2,1 h 3 l 3,-1 h 2 l 3,1 3,1 2,1 3,1 h 3 2 3 l 3,-1 h 2 3 l 3,1 2,1 3,1 3,-1 h 3 2 3 l 3,-2 2,1 h 3 l 3,1 2,2 3,-3 3,-1 h 2 l 3,-1 3,2 h 2 l 3,-2 3,-3 2,4 3,1 h 3 l 2,-2 h 3 l 3,-2 2,-1 3,-1 3,-3 2,-1 3,-2 3,-2 3,-2 2,2 3,-1 3,-2 2,-2 3,-3 3,1 h 2 l 3,-3 3,-3 2,-2 3,-2 3,-3 2,-3 3,-1 h 3 l 2,-1 3,-2 3,-2 2,-4 3,-4 3,-3 h 2 l 3,-1 3,-4 2,-5 3,-3 h 3 l 3,-1 2,-1 3,-2 3,1 2,-3 3,-5 3,-3 2,-2 3,-3 3,-1 2,-1 3,-3 3,-4 2,-1 3,-3 3,-4 h 2 3 l 3,-1 2,-1 3,-4 3,-1 2,-3 3,-2 h 3 l 2,1 3,-1 3,-2 3,-3 2,-4 3,-1 3,-2 2,-2 h 3 l 3,-1 h 2 l 3,-2 3,-2 2,-2 h 3 l 3,1 2,1 3,1 3,-2 2,-2 3,-1 3,1 h 2 l 3,1 3,1 h 2 l 3,-2 3,-2 2,-1 3,1 h 3 l 3,3 2,2 h 3 3 l 2,1 h 3 l 3,1 2,1 h 3 l 3,2 2,3 3,1 h 3 2 l 3,2 3,2 2,-1 3,2 3,4 2,4 3,3 3,1 2,1 3,3 3,3 2,2 3,4 3,4 3,3 2,3 3,3 3,3 2,2 3,4 3,3 2,3 3,3 3,2 2,3 3,2 3,4 2,5 3,3 3,2 2,3 3,4 3,3 2,5 3,5 3,5 2,4 3,3 3,2 2,1 3,2 3,4 3,4 2,2 3,1 3,1 2,1 3,2 3,2 2,1 h 3 l 3,1 h 2 l 3,-1 h 3 l 2,-4 3,-4 3,-3 2,-3 3,-4 3,-4 2,-5 3,-6 3,-8 2,-4 3,-6 3,-6 2,-7 3,-7 3,-8 3,-9 2,-9 3,-7 3,-7 2,-7 3,-9 3,-6 2,-6 3,-8 3,-10 2,-8 3,-4 3,-4 2,-5 3,-3 3,-3 2,-1 3,-3 3,-4 2,-2 h 3 3 2 3 l 3,-1 2,1 3,2 3,4 h 3 l 2,2 3,3 3,2 2,-1 3,5 3,2 2,1 3,3 3,2 2,2 3,1 3,2 2,1 3,3 3,3 2,4 3,3 3,-1 2,1 3,2 3,2 h 2 l 3,1 3,2 2,6 3,1 3,3 3,3 2,2 h 3 l 3,5 2,3 3,1 3,2 h 2 l 3,3 3,3 2,2 3,3 3,4 2,3 3,3 3,4 2,3 3,4 3,4 2,1 3,1 3,3 2,4 3,5 3,2 2,3 3,4 3,4 3,4 2,2 3,1 3,2 2,4 3,4 3,3 2,2 3,2 3,5 2,3 3,1 h 3 2 l 3,4 3,3 2,2 3,1 3,1 2,1 3,1 h 3 l 2,1 h 3 l 3,-1 2,-1 3,-3 h 3 3 l 2,-2 3,-2 3,-3 2,-1 3,-1 3,-2 2,-1 3,-3 3,-3 2,-2 3,-3 3,-4 2,-4 3,-3 3,-3 2,-2 3,-3 3,-4 2,-1 3,-6 3,-3 2,-2 3,-3 3,-3 2,-2 3,-3 3,-4 3,-6 h 2 3 l 3,-2 2,-6 3,-4 3,-2 h 2 l 3,-2 3,-2 2,-3 3,-2 3,-3 h 2 l 3,-3 3,-2 2,-1 3,-4 h 3 l 2,-1 3,-1 3,-2 2,1 3,-3 h 3 l 2,2 h 3 l 3,-2 3,-1 h 2 3 l 3,1 h 2 3 l 3,1 2,1 h 3 3 2 l 3,1 3,1 2,1 3,1 3,2 2,1 3,3 3,2 2,1 3,-1 h 3 2 l 3,1 3,3 h 2 l 3,-1 3,-1 3,1 h 2 l 3,-1 3,-2 2,-4 3,-3 3,-2 2,-2 3,-2 3,-8 2,-3 3,-5 3,-4 2,-5 3,-4 3,-4 2,-4 3,-4 3,-2 2,-4 3,-5 3,-5 2,-4 3,-5 3,-5 2,-5 3,-4 3,-5 3,-3 2,-1 3,-2 3,-2 2,-2 3,-3 3,-2 2,-2 3,-3 3,-3 2,-2 3,2 3,1 2,-1 h 3 l 3,2 2,-1 h 3 3 l 2,1 h 3 l 3,1 2,1 3,1 3,1 2,2 3,2 3,3 3,3 2,1 h 3 l 3,1 2,3 3,5 3,2 2,1 3,1 3,3 2,7 3,5 3,4 2,5 3,4 3,3 2,3 3,4 3,4 2,4 3,6 3,7 2,6 3,6 3,5 2,6 3,6 3,7 3,4 2,3 3,5 3,7 2,7 3,7 3,6 2,5 3,4 3,3 2,4 3,6 3,1 2,2 3,4 3,3 2,2 h 3 l 3,-1 2,-1 h 3 l 3,-2 2,-3 3,-2 3,-1 2,-1 3,-6 3,-6 3,-6 2,-5 3,-4 3,-5 2,-6 3,-7 3,-6 2,-4 3,-5 3,-5 2,-6 3,-4 3,-4 2,-6 3,-5 3,-6 2,-6 3,-5 3,-3 2,-5 3,-2 3,-2 2,-4 3,-6 3,-4 2,-4 3,-3 3,-1 3,-2 2,-2 3,-1 h 3 l 2,-2 3,-1 3,-2 2,-2 3,-2 3,-1 2,1 3,3 3,-3 2,1 3,2 3,2 2,3 3,2 3,2 2,1 h 3 l 3,3 2,4 3,4 3,3 2,2 3,3 3,4 3,5 2,6 3,6 3,5 2,5 3,3 3,5 2,8 3,7 3,7 2,4 3,5 3,6 2,8 3,8 3,4 2,6 3,6 3,7 2,7 3,6 3,4 2,5 3,8 3,4 2,1 3,1 3,2 3,2 h 2 l 3,-1 3,-3 h 2 l 3,-4 3,-3 2,-3 3,-6 3,-6 2,-7 3,-8 3,-8 2,-6 3,-9 3,-9 2,-9 3,-5 3,-9 2,-10 3,-10 3,-9 2,-6 3,-6 3,-7 2,-5 3,-13 3,-10 3,-7 2,-8 3,-5 3,-7 2,-6 3,-7 3,-4 2,-7 3,-7 3,-4 2,-2 3,-5 3,-6 2,-5 3,-4 3,-2 2,-3 3,-3 3,-3 2,-6 3,-5 3,-2 h 2 l 3,-3 h 3 l 2,-1 3,-3 3,-3 h 3 2 3 l 3,1 2,2 3,3 h 3 l 2,-2 3,-2 h 3 l 2,1 3,3 3,6 h 2 l 3,2 3,1 2,-1 3,-1 3,7 2,6 3,3 h 3 l 2,4 3,4 3,6 2,6 3,4 3,5 3,6 2,7 3,3 3,6 2,5 3,6 3,10 2,7 3,5 3,6 2,7 3,5 3,10 2,10 3,10 3,10 2,6 3,7 3,9 2,9 3,6 3,10 2,10 3,9 3,7 2,7 3,7 3,7 3,6 2,5 3,4 3,2 2,5 3,4 3,2 2,1 3,3 h 3 l 2,-2 3,-2 3,-1 2,-5 3,-4 3,-6 2,-5 3,-1 3,-3 2,-8 3,-7 3,-4 2,-6 3,-4 3,-5 2,-5 3,-5 3,-5 3,-5 2,-5 3,-6 3,-5 2,-4 3,-3 3,-3 2,3 3,-2 3,-4 2,-2 3,-6 3,-3 2,-2 3,-1 3,1 2,-3 h 3 l 3,2 h 2 l 3,-1 h 3 l 2,1 3,1 3,2 2,-1 3,1 3,1 h 3 2 l 3,4 3,4 2,-1 3,3 3,-1 2,-1 3,1 3,-1 2,1 3,-2 3,-3 h 2 l 3,-3 3,-3 2,-3 3,-1 3,-7 2,-6 3,-6 3,-7 2,-5 3,-3 3,-7 2,-9 3,-5 3,-9 3,-9 2,-9 3,-9 3,-4 2,-8 3,-10 3,-10 2,-10 3,-8 3,-8 2,-8 3,-7 3,-7 2,-7 3,-7 3,-10 2,-6 3,-7 3,-7 2,-9 3,-6 3,-8 2,-6 3,-4 3,-15 2,-6 3,-4 3,-4 3,-5 2,-9 3,-8 3,-7 2,-5 3,-2 3,-2 2,-4 3,-4 3,-9 2,-3 3,-2 3,-2 2,-8 3,-2 3,-4 2,-4 3,-1 3,-5 2,-2 3,-1 3,-2 2,-3 3,-1 3,2 2,3 3,3" /></g></g></g><g
         id="g6377"><g
           clip-path="url(#clipPath6383)"
           id="g6379"><g
             transform="matrix(1.0777802,0,0,-1.0778337,462.36771,26842.32)"
             id="g6385" /></g></g><g
         id="g6387"><g
           transform="matrix(1.0777802,0,0,-1.0778337,462.36771,26842.32)"
           id="g6389" /><g
           transform="matrix(0,-6.0358686,6.0355692,0,120.71138,6778.4457)"
           id="g6391"><g
             id="g6393"><text
               id="text6397"
               style="font-variant:normal;font-weight:normal;font-size:25px;font-family:Arial;-inkscape-font-specification:ArialForCAE;writing-mode:lr-tb;fill:#0000ff;fill-opacity:1;fill-rule:nonzero;stroke:none"><tspan
                 id="tspan6395"
                 y="0"
                 x="0 13.890625 30.5625 38.875 55.546875 63.859375 77.75 84.6875 98.578125 106.89062">dB(S(4,3))</tspan></text>
</g></g></g><g
         id="g6399"><g
           clip-path="url(#clipPath6405)"
           id="g6401"><g
             transform="matrix(1.0777802,0,0,-1.0778337,462.36771,26842.32)"
             id="g6407"><path
               id="path6409"
               style="fill:none;stroke:#b8b8b8;stroke-width:7;stroke-linecap:square;stroke-linejoin:bevel;stroke-miterlimit:10;stroke-dasharray:none;stroke-opacity:1"
               d="m 5411,17750 v 2375" /><path
               id="path6411"
               style="fill:none;stroke:#b8b8b8;stroke-width:7;stroke-linecap:square;stroke-linejoin:bevel;stroke-miterlimit:10;stroke-dasharray:none;stroke-opacity:1"
               d="m 5946,17750 v 2375" /><path
               id="path6413"
               style="fill:none;stroke:#b8b8b8;stroke-width:7;stroke-linecap:square;stroke-linejoin:bevel;stroke-miterlimit:10;stroke-dasharray:none;stroke-opacity:1"
               d="m 6482,17750 v 2375" /><path
               id="path6415"
               style="fill:none;stroke:#b8b8b8;stroke-width:7;stroke-linecap:square;stroke-linejoin:bevel;stroke-miterlimit:10;stroke-dasharray:none;stroke-opacity:1"
               d="m 7018,17750 v 2375" /><path
               id="path6417"
               style="fill:none;stroke:#b8b8b8;stroke-width:7;stroke-linecap:square;stroke-linejoin:bevel;stroke-miterlimit:10;stroke-dasharray:none;stroke-opacity:1"
               d="m 7554,17750 v 2375" /><path
               id="path6419"
               style="fill:none;stroke:#b8b8b8;stroke-width:7;stroke-linecap:square;stroke-linejoin:bevel;stroke-miterlimit:10;stroke-dasharray:none;stroke-opacity:1"
               d="m 8089,17750 v 2375" /><path
               id="path6421"
               style="fill:none;stroke:#000000;stroke-width:7;stroke-linecap:square;stroke-linejoin:bevel;stroke-miterlimit:10;stroke-dasharray:none;stroke-opacity:1"
               d="m 4875,17650 v 2475" /><path
               id="path6423"
               style="fill:none;stroke:#000000;stroke-width:7;stroke-linecap:square;stroke-linejoin:bevel;stroke-miterlimit:10;stroke-dasharray:none;stroke-opacity:1"
               d="m 5142,17700 v 50" /><path
               id="path6425"
               style="fill:none;stroke:#000000;stroke-width:7;stroke-linecap:square;stroke-linejoin:bevel;stroke-miterlimit:10;stroke-dasharray:none;stroke-opacity:1"
               d="m 5411,17750 v -100" /><path
               id="path6427"
               style="fill:none;stroke:#000000;stroke-width:7;stroke-linecap:square;stroke-linejoin:bevel;stroke-miterlimit:10;stroke-dasharray:none;stroke-opacity:1"
               d="m 5678,17700 v 50" /><path
               id="path6429"
               style="fill:none;stroke:#000000;stroke-width:7;stroke-linecap:square;stroke-linejoin:bevel;stroke-miterlimit:10;stroke-dasharray:none;stroke-opacity:1"
               d="m 5946,17750 v -100" /><path
               id="path6431"
               style="fill:none;stroke:#000000;stroke-width:7;stroke-linecap:square;stroke-linejoin:bevel;stroke-miterlimit:10;stroke-dasharray:none;stroke-opacity:1"
               d="m 6213,17700 v 50" /><path
               id="path6433"
               style="fill:none;stroke:#000000;stroke-width:7;stroke-linecap:square;stroke-linejoin:bevel;stroke-miterlimit:10;stroke-dasharray:none;stroke-opacity:1"
               d="m 6482,17750 v -100" /><path
               id="path6435"
               style="fill:none;stroke:#000000;stroke-width:7;stroke-linecap:square;stroke-linejoin:bevel;stroke-miterlimit:10;stroke-dasharray:none;stroke-opacity:1"
               d="m 6749,17700 v 50" /><path
               id="path6437"
               style="fill:none;stroke:#000000;stroke-width:7;stroke-linecap:square;stroke-linejoin:bevel;stroke-miterlimit:10;stroke-dasharray:none;stroke-opacity:1"
               d="m 7018,17750 v -100" /><path
               id="path6439"
               style="fill:none;stroke:#000000;stroke-width:7;stroke-linecap:square;stroke-linejoin:bevel;stroke-miterlimit:10;stroke-dasharray:none;stroke-opacity:1"
               d="m 7285,17700 v 50" /><path
               id="path6441"
               style="fill:none;stroke:#000000;stroke-width:7;stroke-linecap:square;stroke-linejoin:bevel;stroke-miterlimit:10;stroke-dasharray:none;stroke-opacity:1"
               d="m 7554,17750 v -100" /><path
               id="path6443"
               style="fill:none;stroke:#000000;stroke-width:7;stroke-linecap:square;stroke-linejoin:bevel;stroke-miterlimit:10;stroke-dasharray:none;stroke-opacity:1"
               d="m 7821,17700 v 50" /><path
               id="path6445"
               style="fill:none;stroke:#000000;stroke-width:7;stroke-linecap:square;stroke-linejoin:bevel;stroke-miterlimit:10;stroke-dasharray:none;stroke-opacity:1"
               d="m 8089,17750 v -100" /><path
               id="path6447"
               style="fill:none;stroke:#000000;stroke-width:7;stroke-linecap:square;stroke-linejoin:bevel;stroke-miterlimit:10;stroke-dasharray:none;stroke-opacity:1"
               d="m 8356,17700 v 50" /><path
               id="path6449"
               style="fill:none;stroke:#000000;stroke-width:7;stroke-linecap:square;stroke-linejoin:bevel;stroke-miterlimit:10;stroke-dasharray:none;stroke-opacity:1"
               d="m 8625,17650 v 2475" /></g><g
             transform="matrix(4.8284553,0,0,4.8286949,6260.8252,7944.2306)"
             id="g6451"><g
               id="g6453"><text
                 id="text6457"
                 style="font-variant:normal;font-weight:normal;font-size:25px;font-family:Arial;-inkscape-font-specification:ArialForCAE;writing-mode:lr-tb;fill:#000000;fill-opacity:1;fill-rule:nonzero;stroke:none"><tspan
                   id="tspan6455"
                   y="0"
                   x="0">2</tspan></text>
</g></g><g
             transform="matrix(4.8284553,0,0,4.8286949,6837.4376,7944.2306)"
             id="g6459"><g
               id="g6461"><text
                 id="text6465"
                 style="font-variant:normal;font-weight:normal;font-size:25px;font-family:Arial;-inkscape-font-specification:ArialForCAE;writing-mode:lr-tb;fill:#000000;fill-opacity:1;fill-rule:nonzero;stroke:none"><tspan
                   id="tspan6463"
                   y="0"
                   x="0">4</tspan></text>
</g></g><g
             transform="matrix(4.8284553,0,0,4.8286949,7415.1278,7944.2306)"
             id="g6467"><g
               id="g6469"><text
                 id="text6473"
                 style="font-variant:normal;font-weight:normal;font-size:25px;font-family:Arial;-inkscape-font-specification:ArialForCAE;writing-mode:lr-tb;fill:#000000;fill-opacity:1;fill-rule:nonzero;stroke:none"><tspan
                   id="tspan6471"
                   y="0"
                   x="0">6</tspan></text>
</g></g><g
             transform="matrix(4.8284553,0,0,4.8286949,7992.818,7944.2306)"
             id="g6475"><g
               id="g6477"><text
                 id="text6481"
                 style="font-variant:normal;font-weight:normal;font-size:25px;font-family:Arial;-inkscape-font-specification:ArialForCAE;writing-mode:lr-tb;fill:#000000;fill-opacity:1;fill-rule:nonzero;stroke:none"><tspan
                   id="tspan6479"
                   y="0"
                   x="0">8</tspan></text>
</g></g><g
             transform="matrix(4.8284553,0,0,4.8286949,8537.097,7944.2306)"
             id="g6483"><g
               id="g6485"><text
                 id="text6489"
                 style="font-variant:normal;font-weight:normal;font-size:25px;font-family:Arial;-inkscape-font-specification:ArialForCAE;writing-mode:lr-tb;fill:#000000;fill-opacity:1;fill-rule:nonzero;stroke:none"><tspan
                   id="tspan6487"
                   y="0"
                   x="0 13.890625">10</tspan></text>
</g></g><g
             transform="matrix(4.8284553,0,0,4.8286949,9113.7094,7944.2306)"
             id="g6491"><g
               id="g6493"><text
                 id="text6497"
                 style="font-variant:normal;font-weight:normal;font-size:25px;font-family:Arial;-inkscape-font-specification:ArialForCAE;writing-mode:lr-tb;fill:#000000;fill-opacity:1;fill-rule:nonzero;stroke:none"><tspan
                   id="tspan6495"
                   y="0"
                   x="0 13.890625">12</tspan></text>
</g></g><g
             transform="matrix(4.8284553,0,0,4.8286949,5683.135,7944.2306)"
             id="g6499"><g
               id="g6501"><text
                 id="text6505"
                 style="font-variant:normal;font-weight:normal;font-size:25px;font-family:Arial;-inkscape-font-specification:ArialForCAE;writing-mode:lr-tb;fill:#000000;fill-opacity:1;fill-rule:nonzero;stroke:none"><tspan
                   id="tspan6503"
                   y="0"
                   x="0">0</tspan></text>
</g></g><g
             transform="matrix(4.8284553,0,0,4.8286949,9691.3996,7944.2306)"
             id="g6507"><g
               id="g6509"><text
                 id="text6513"
                 style="font-variant:normal;font-weight:normal;font-size:25px;font-family:Arial;-inkscape-font-specification:ArialForCAE;writing-mode:lr-tb;fill:#000000;fill-opacity:1;fill-rule:nonzero;stroke:none"><tspan
                   id="tspan6511"
                   y="0"
                   x="0 13.890625">14</tspan></text>
</g></g><g
             transform="matrix(1.0777802,0,0,-1.0778337,462.36771,26842.32)"
             id="g6515"><path
               id="path6517"
               style="fill:none;stroke:#b8b8b8;stroke-width:7;stroke-linecap:square;stroke-linejoin:bevel;stroke-miterlimit:10;stroke-dasharray:none;stroke-opacity:1"
               d="M 4875,18146 H 8625" /><path
               id="path6519"
               style="fill:none;stroke:#b8b8b8;stroke-width:7;stroke-linecap:square;stroke-linejoin:bevel;stroke-miterlimit:10;stroke-dasharray:none;stroke-opacity:1"
               d="M 4875,18542 H 8625" /><path
               id="path6521"
               style="fill:none;stroke:#b8b8b8;stroke-width:7;stroke-linecap:square;stroke-linejoin:bevel;stroke-miterlimit:10;stroke-dasharray:none;stroke-opacity:1"
               d="M 4875,18937 H 8625" /><path
               id="path6523"
               style="fill:none;stroke:#b8b8b8;stroke-width:7;stroke-linecap:square;stroke-linejoin:bevel;stroke-miterlimit:10;stroke-dasharray:none;stroke-opacity:1"
               d="M 4875,19333 H 8625" /><path
               id="path6525"
               style="fill:none;stroke:#b8b8b8;stroke-width:7;stroke-linecap:square;stroke-linejoin:bevel;stroke-miterlimit:10;stroke-dasharray:none;stroke-opacity:1"
               d="M 4875,19729 H 8625" /><path
               id="path6527"
               style="fill:none;stroke:#000000;stroke-width:7;stroke-linecap:square;stroke-linejoin:bevel;stroke-miterlimit:10;stroke-dasharray:none;stroke-opacity:1"
               d="M 4775,17750 H 8625" /><path
               id="path6529"
               style="fill:none;stroke:#000000;stroke-width:7;stroke-linecap:square;stroke-linejoin:bevel;stroke-miterlimit:10;stroke-dasharray:none;stroke-opacity:1"
               d="m 4825,17947 h 50" /><path
               id="path6531"
               style="fill:none;stroke:#000000;stroke-width:7;stroke-linecap:square;stroke-linejoin:bevel;stroke-miterlimit:10;stroke-dasharray:none;stroke-opacity:1"
               d="m 4775,18146 h 100" /><path
               id="path6533"
               style="fill:none;stroke:#000000;stroke-width:7;stroke-linecap:square;stroke-linejoin:bevel;stroke-miterlimit:10;stroke-dasharray:none;stroke-opacity:1"
               d="m 4825,18343 h 50" /><path
               id="path6535"
               style="fill:none;stroke:#000000;stroke-width:7;stroke-linecap:square;stroke-linejoin:bevel;stroke-miterlimit:10;stroke-dasharray:none;stroke-opacity:1"
               d="m 4775,18542 h 100" /><path
               id="path6537"
               style="fill:none;stroke:#000000;stroke-width:7;stroke-linecap:square;stroke-linejoin:bevel;stroke-miterlimit:10;stroke-dasharray:none;stroke-opacity:1"
               d="m 4825,18739 h 50" /><path
               id="path6539"
               style="fill:none;stroke:#000000;stroke-width:7;stroke-linecap:square;stroke-linejoin:bevel;stroke-miterlimit:10;stroke-dasharray:none;stroke-opacity:1"
               d="m 4775,18937 h 100" /><path
               id="path6541"
               style="fill:none;stroke:#000000;stroke-width:7;stroke-linecap:square;stroke-linejoin:bevel;stroke-miterlimit:10;stroke-dasharray:none;stroke-opacity:1"
               d="m 4825,19134 h 50" /><path
               id="path6543"
               style="fill:none;stroke:#000000;stroke-width:7;stroke-linecap:square;stroke-linejoin:bevel;stroke-miterlimit:10;stroke-dasharray:none;stroke-opacity:1"
               d="m 4775,19333 h 100" /><path
               id="path6545"
               style="fill:none;stroke:#000000;stroke-width:7;stroke-linecap:square;stroke-linejoin:bevel;stroke-miterlimit:10;stroke-dasharray:none;stroke-opacity:1"
               d="m 4825,19530 h 50" /><path
               id="path6547"
               style="fill:none;stroke:#000000;stroke-width:7;stroke-linecap:square;stroke-linejoin:bevel;stroke-miterlimit:10;stroke-dasharray:none;stroke-opacity:1"
               d="m 4775,19729 h 100" /><path
               id="path6549"
               style="fill:none;stroke:#000000;stroke-width:7;stroke-linecap:square;stroke-linejoin:bevel;stroke-miterlimit:10;stroke-dasharray:none;stroke-opacity:1"
               d="m 4825,19926 h 50" /><path
               id="path6551"
               style="fill:none;stroke:#000000;stroke-width:7;stroke-linecap:square;stroke-linejoin:bevel;stroke-miterlimit:10;stroke-dasharray:none;stroke-opacity:1"
               d="M 4775,20125 H 8625" /></g><g
             transform="matrix(4.8284553,0,0,4.8286949,5420.1567,7320.1649)"
             id="g6553"><g
               id="g6555"><text
                 id="text6559"
                 style="font-variant:normal;font-weight:normal;font-size:25px;font-family:Arial;-inkscape-font-specification:ArialForCAE;writing-mode:lr-tb;fill:#000000;fill-opacity:1;fill-rule:nonzero;stroke:none"><tspan
                   id="tspan6557"
                   y="0"
                   x="0 8.3125 22.203125">-40</tspan></text>
</g></g><g
             transform="matrix(4.8284553,0,0,4.8286949,5420.1567,6893.3428)"
             id="g6561"><g
               id="g6563"><text
                 id="text6567"
                 style="font-variant:normal;font-weight:normal;font-size:25px;font-family:Arial;-inkscape-font-specification:ArialForCAE;writing-mode:lr-tb;fill:#000000;fill-opacity:1;fill-rule:nonzero;stroke:none"><tspan
                   id="tspan6565"
                   y="0"
                   x="0 8.3125 22.203125">-30</tspan></text>
</g></g><g
             transform="matrix(4.8284553,0,0,4.8286949,5420.1567,6467.5985)"
             id="g6569"><g
               id="g6571"><text
                 id="text6575"
                 style="font-variant:normal;font-weight:normal;font-size:25px;font-family:Arial;-inkscape-font-specification:ArialForCAE;writing-mode:lr-tb;fill:#000000;fill-opacity:1;fill-rule:nonzero;stroke:none"><tspan
                   id="tspan6573"
                   y="0"
                   x="0 8.3125 22.203125">-20</tspan></text>
</g></g><g
             transform="matrix(4.8284553,0,0,4.8286949,5420.1567,6040.7763)"
             id="g6577"><g
               id="g6579"><text
                 id="text6583"
                 style="font-variant:normal;font-weight:normal;font-size:25px;font-family:Arial;-inkscape-font-specification:ArialForCAE;writing-mode:lr-tb;fill:#000000;fill-opacity:1;fill-rule:nonzero;stroke:none"><tspan
                   id="tspan6581"
                   y="0"
                   x="0 8.3125 22.203125">-10</tspan></text>
</g></g><g
             transform="matrix(4.8284553,0,0,4.8286949,5527.9347,5613.9542)"
             id="g6585"><g
               id="g6587"><text
                 id="text6591"
                 style="font-variant:normal;font-weight:normal;font-size:25px;font-family:Arial;-inkscape-font-specification:ArialForCAE;writing-mode:lr-tb;fill:#000000;fill-opacity:1;fill-rule:nonzero;stroke:none"><tspan
                   id="tspan6589"
                   y="0"
                   x="0">0</tspan></text>
</g></g><g
             transform="matrix(4.8284553,0,0,4.8286949,5420.1567,7746.987)"
             id="g6593"><g
               id="g6595"><text
                 id="text6599"
                 style="font-variant:normal;font-weight:normal;font-size:25px;font-family:Arial;-inkscape-font-specification:ArialForCAE;writing-mode:lr-tb;fill:#000000;fill-opacity:1;fill-rule:nonzero;stroke:none"><tspan
                   id="tspan6597"
                   y="0"
                   x="0 8.3125 22.203125">-50</tspan></text>
</g></g><g
             transform="matrix(4.8284553,0,0,4.8286949,5461.1123,5187.132)"
             id="g6601"><g
               id="g6603"><text
                 id="text6607"
                 style="font-variant:normal;font-weight:normal;font-size:25px;font-family:Arial;-inkscape-font-specification:ArialForCAE;writing-mode:lr-tb;fill:#000000;fill-opacity:1;fill-rule:nonzero;stroke:none"><tspan
                   id="tspan6605"
                   y="0"
                   x="0 13.890625">10</tspan></text>
</g></g></g></g><g
         id="g6609"><g
           clip-path="url(#clipPath6615)"
           id="g6611"><g
             transform="matrix(1.0777802,0,0,-1.0778337,462.36771,26842.32)"
             id="g6617" /><g
             id="g6619"><path
               id="path6621"
               style="fill:#ff0000;fill-opacity:1;fill-rule:nonzero;stroke:none"
               d="m 5716.5462,5740.4919 1.0778,-160.5973 7.5444,1.0779 -3.2333,481.7916 -5.3889,-1.0778 z" /><path
               id="path6623"
               style="fill:#ff0000;fill-opacity:1;fill-rule:nonzero;stroke:none"
               d="m 5719.7795,5489.3566 -3.2333,98.0829 7.5445,1.0778 3.2333,-98.0829 z" /></g><g
             transform="matrix(1.0777802,0,0,-1.0778337,462.36771,26842.32)"
             id="g6625"><path
               id="path6627"
               style="fill:none;stroke:#ff0000;stroke-width:7;stroke-linecap:square;stroke-linejoin:bevel;stroke-miterlimit:10;stroke-dasharray:none;stroke-opacity:1"
               d="m 4882,19810 1,44 3,-13 2,-186 3,49 3,33 2,4 3,-20 3,-12 2,51 h 3 l 3,-21 3,22 2,-24 3,-15 3,-3 2,8 3,27 3,-5 2,-19 3,-21 3,-6 2,25 3,9 3,-4 2,-6 3,2 3,2 2,-2 3,-9 h 3 2 l 3,2 3,2 2,-13 3,-1 3,7 2,7 3,-4 3,9 3,-1 h 2 l 3,4 3,-6 2,-2 3,-2 3,-4 2,-3 3,11 3,1 2,-2 3,7 3,-10 2,-2 3,2 3,1 2,3 3,4 3,1 2,-2 3,4 3,-5 2,-6 3,-2 3,8 2,-6 3,3 3,5 3,2 h 2 l 3,-6 3,-2 2,3 3,-4 3,-3 2,2 3,2 3,-5 2,3 3,3 3,-1 2,-6 3,2 3,4 2,2 h 3 l 3,1 2,-1 3,-1 3,-2 2,-3 3,-1 3,-2 h 2 l 3,3 h 3 l 3,2 2,1 3,-1 3,-2 2,1 3,1 3,-1 2,-2 3,3 h 3 l 2,-1 3,1 3,2 2,1 3,-1 3,-2 h 2 l 3,-1 h 3 l 2,1 3,2 3,-2 h 2 3 l 3,-2 2,3 h 3 l 3,1 h 3 l 2,-3 h 3 3 l 2,-1 3,-3 3,2 2,1 h 3 l 3,-2 h 2 3 3 l 2,1 3,-3 h 3 2 3 l 3,3 2,1 3,2 3,2 2,-1 3,-3 h 3 l 2,2 3,2 3,-3 h 3 l 2,-1 h 3 3 l 2,-2 3,1 h 3 l 2,-1 3,1 h 3 l 2,-1 h 3 l 3,-2 2,1 h 3 l 3,-1 2,1 h 3 l 3,-1 2,1 3,3 3,-2 2,-1 3,-2 3,-2 2,1 3,1 3,1 h 3 2 l 3,-2 3,2 2,1 3,-2 3,-3 2,1 h 3 l 3,1 h 2 l 3,-2 h 3 l 2,1 3,1 h 3 l 2,-2 3,-1 3,1 h 2 l 3,-3 3,-2 2,1 3,2 3,-1 h 2 3 l 3,-3 h 3 l 2,-2 3,-1 3,3 2,-2 3,1 h 3 l 2,-1 3,-1 h 3 l 2,-1 3,-2 3,-2 h 2 3 l 3,-2 2,-3 3,-5 3,-3 2,-2 h 3 l 3,-1 2,-1 3,-1 3,-3 2,-5 3,-4 3,-5 3,-4 2,-5 3,-3 3,-4 2,-5 3,-6 3,-6 2,-6 3,-7 3,-10 2,-12 3,-12 3,-12 2,-12 3,-14 3,-16 2,-14 3,-14 3,-15 2,-21 3,-28 3,-28 2,-29 3,-29 3,-35 2,-31 3,-34 3,-48 3,-61 2,-67 3,-75 3,-86 2,-135 3,-208 3,-149 2,79 3,174 3,162 2,97 3,51 3,14 2,58 3,53 3,37 2,25 3,42 3,18 2,15 3,16 3,15 2,15 3,13 3,12 2,11 3,3 3,6 3,5 2,5 3,7 3,11 2,5 3,1 3,2 2,-1 3,-2 h 3 l 2,7 3,1 3,-1 2,-2 3,-2 3,-1 2,-1 3,-1 3,-2 2,-6 3,-4 3,-4 2,-3 3,-2 3,-2 2,-5 3,-5 3,-3 3,-5 2,-14 3,-14 3,-9 h 2 l 3,-3 3,-6 2,-10 3,-12 3,-13 2,-8 3,-9 3,-13 2,3 3,-14 3,-17 2,-19 3,-18 3,-15 2,-6 3,-5 3,-17 2,-20 3,-9 3,-10 2,-20 3,-31 3,-17 3,-22 2,-27 3,-18 3,-39 2,-36 3,-24 3,-5 2,-43 3,-40 3,-50 2,-74 3,-82 3,-107 2,-134 3,-165 3,-192 2,382 3,90 3,-1 2,-10 3,44 3,53 2,19 3,-18 3,50 2,79 3,43 3,14 3,21 2,44 3,15 3,-2 2,5 3,26 3,16 2,5 3,-4 3,14 2,27 3,12 3,4 2,30 3,4 3,7 2,5 3,-5 3,5 2,6 3,5 3,4 2,10 3,-7 3,-2 2,4 3,-7 3,16 3,12 2,-8 3,-48 3,45 2,2 3,-3 3,14 2,20 3,-3 3,-7 2,-3 3,5 3,3 2,13 3,11 3,-7 2,-3 3,6 3,5 2,-3 3,6 3,1 2,14 3,23 h 3 l 2,2 3,3 3,7 3,13 2,4 3,-1 3,8 2,19 3,-3 3,7 2,9 3,9 3,15 2,2 3,5 3,9 2,13 3,10 3,17 2,12 3,2 3,8 2,10 3,9 3,8 2,9 3,10 3,13 2,11 3,7 3,4 3,8 2,11 3,14 3,4 2,11 3,10 3,7 2,5 3,8 3,8 2,3 3,-3 3,18 2,7 3,4 3,8 2,15 3,4 3,4 2,7 3,5 3,6 2,5 3,7 3,8 2,3 3,1 3,2 3,4 2,8 3,7 3,6 2,4 3,2 3,1 2,2 3,3 3,6 2,4 3,3 3,2 2,1 3,2 3,3 2,5 3,4 3,2 2,1 3,1 h 3 l 2,2 3,3 3,1 2,2 3,1 3,-1 3,1 2,1 3,2 3,3 2,-2 3,-1 3,1 2,1 3,-1 3,2 2,1 3,-1 3,3 h 2 l 3,-3 3,-4 2,1 3,-1 3,-1 h 2 l 3,-2 3,2 h 2 l 3,-2 3,-2 h 2 l 3,-3 3,-4 3,-3 2,-1 3,-1 3,2 2,2 3,1 3,-3 2,-2 h 3 3 2 l 3,-3 3,-3 h 2 3 l 3,1 2,-1 3,-1 3,3 2,-4 h 3 l 3,1 2,1 3,3 3,-1 2,-2 3,-2 3,-2 3,2 2,2 3,1 3,-1 2,6 3,-2 3,-3 2,1 3,5 3,1 2,-1 3,-2 3,2 h 2 l 3,-1 3,-1 2,3 3,-2 h 3 2 l 3,-4 h 3 2 l 3,-4 3,-5 2,4 3,-4 3,-3 3,-2 2,-2 3,-3 3,-3 2,-5 3,-8 3,-2 2,-4 3,-4 3,-3 2,-5 3,-2 3,-7 2,-9 3,-4 3,-6 2,-9 3,-8 3,-6 2,-7 3,-7 3,-8 2,-8 3,-10 3,-14 2,-14 3,-15 3,-15 3,-8 2,-9 3,-13 3,-17 2,-13 3,-16 3,-18 2,-18 3,-19 3,-12 2,-12 3,-13 3,-15 2,-19 3,-16 3,-10 h 2 l 3,1 3,15 2,9 3,-1 3,8 2,4 3,17 3,27 2,26 3,18 3,15 3,12 2,7 3,18 3,24 2,17 3,8 3,2 2,13 3,10 3,8 2,8 3,10 3,8 2,7 3,4 3,4 2,5 3,4 3,6 2,8 3,5 3,3 2,1 3,1 3,4 2,6 3,1 3,-7 3,6 2,3 3,1 h 3 l 2,3 h 3 3 2 l 3,3 3,3 2,2 3,1 3,-3 2,-6 3,-3 3,2 2,5 3,-3 3,-3 2,-1 h 3 3 l 2,-2 3,-3 3,-1 2,5 3,1 3,-1 3,-3 2,-3 3,-7 3,-5 2,-4 3,-1 3,6 2,-5 3,-3 3,-1 2,-3 3,-2 3,-4 2,-3 3,1 3,-3 2,-3 3,-5 3,-5 2,1 3,-6 3,-1 2,-2 3,-9 3,-10 2,1 3,1 3,-5 3,-4 h 2 l 3,-2 3,-4 2,-4 3,-6 3,-8 2,-6 h 3 l 3,-4 2,-6 3,-4 3,-4 2,-10 3,-7 3,-4 2,-4 3,-8 3,-7 2,-2 3,-1 3,-4 2,-10 3,-9 3,-9 2,-10 3,-10 3,-8 3,-4 2,-1 3,-8 3,-12 2,-11 3,-9 3,-8 2,-13 3,-2 3,-7 2,-18 3,-2 3,-15 2,-15 3,-12 3,-7 2,-15 3,-16 3,-15 2,-13 3,-10 3,-14 2,-20 3,-26 3,-15 2,-23 3,-22 3,-18 3,-14 2,-12 3,-6 3,-16 2,-48 3,16 3,23 2,11 3,-7 3,23 2,-7 3,18 3,38 2,19 3,21 3,26 2,22 3,10 3,29 2,25 3,30 3,34 2,17 3,25 3,23 2,20 3,15 3,13 3,13 2,15 3,16 3,17 2,16 3,16 3,16 2,13 3,10 3,12 2,14 3,12 3,10 2,9 3,10 3,12 2,5 3,6 3,9 2,12 3,8 3,2 2,5 3,7 3,4 2,-1 3,3 3,3 h 3 l 2,8 3,4 3,1 h 2 3 l 3,-1 2,-1 h 3 3 2 l 3,-2 3,-3 2,-1 3,2 3,-3 2,-4 3,-2 3,-1 2,-2 3,-2 3,-2 2,-3 3,-2 3,-4 2,-3 3,4 3,-5 3,-4 2,-4 3,-3 3,-2 2,-4 3,-2 3,-1 2,-9 h 3 l 3,-1 2,-2 3,-1 3,-3 2,-3 3,-2 3,-3 2,-6 3,-1 3,-3 2,-7 3,-7 3,7 h 2 l 3,-5 3,-4 2,-2 3,-4 3,-3 3,-3 2,-1 3,-6 3,-3 h 2 l 3,-10 3,-2 2,-3 3,-5 3,-1 2,-7 3,-9 3,-9 2,-4 3,-2 3,-7 2,-9 3,-9 3,-10 2,-9 3,-11 3,-11 2,-7 3,-12 3,-13 2,-13 3,-16 3,-15 3,-18 2,-12 3,-7 3,-15 2,-16 3,-11 3,-7 2,-6 3,4 3,-4 2,10 3,34 3,15 2,30 3,25 3,21 2,29 3,31 3,23 2,19 3,18 3,12 2,16 3,16 3,16 2,9 3,12 3,10 3,7 2,6 3,7 3,7 2,5 3,4 3,5 h 2 3 l 3,3 2,6 3,2 3,2 2,3 3,6 3,5 h 2 l 3,-3 h 3 l 2,-5 3,2 3,4 2,1 3,-4 3,-1 2,1 3,3 3,2 3,2 h 2 l 3,-1 3,1 h 2 l 3,3 3,1 2,-2 3,-5 3,-2 2,1 3,5 3,-3 2,-1 h 3 l 3,1 2,4 3,-4 3,-2 2,-1 3,-2 h 3 l 2,-1 3,-1 3,1 2,-1 3,-4 3,-3 3,-2 2,-1 h 3 l 3,-2 2,-3 3,-3 3,-1 2,-4 3,-4 3,-2 2,-3 3,-5 3,-8 2,-10 3,-8 3,-13 2,-15 3,-10 3,-4 2,-8 3,-19 3,-19 2,-12 3,-24 3,-25 2,-30 3,-36 3,-40 3,-38 2,-54 3,-74 3,-93 2,-95 3,-51 3,-2 2,48 3,112 3,99 2,65 3,51 3,57 2,47 3,38 3,30 2,21 3,29 3,23 2,19 3,18 3,16 2,12 3,13 3,14 2,9 3,7 3,8 3,8 2,7 3,8 3,8 2,7 3,4 h 3 l 2,3 3,2 3,1 2,3 3,5 3,4 2,4 h 3 l 3,2 2,4 3,1 3,-2 2,6 h 3 l 3,2 2,4 3,1 3,2 2,-1 3,-2 3,4 3,6 h 2 3 l 3,2 h 2 l 3,1 3,1 2,-1 3,-1 3,1 2,1 h 3 l 3,-1 2,1 h 3 l 3,1 2,3 3,-3 3,-2 2,1 3,2 3,-3 h 2 l 3,1 3,-1 2,-3 3,2 3,-4 3,-1 2,3 3,-2 3,-4 h 2 l 3,4 3,-2 2,-3 3,-3 3,-2 2,-3 3,2 3,-3 2,-5 3,-6 3,-2 2,-3 3,-4 3,-5 2,1 3,-6 3,-6 2,-6 3,-2 3,-13 2,-7 3,-8 3,-10 3,-10 2,-3 3,-7 3,-14 2,-22 3,-8 3,-7 2,-11 3,-19 3,-23 2,-15 3,-14 3,-16 2,-13 3,-13 3,-14 2,-14 3,-12 3,-22 2,-12 3,-1 3,9 2,-8 3,-11 3,-8 2,1 3,4 3,14 3,11 2,5 3,2 3,17 2,21 3,14 3,-4 2,8 3,-8 3,-8 2,2 3,16 3,12 2,8 3,5 3,7 2,3 3,-3 3,-4 2,2 3,-1 3,4 2,1 3,-4 3,-1 2,-1 h 3 l 3,1 3,2 2,4 3,9 3,9 2,3 3,5 3,9 2,10 3,9 3,6 2,10 3,8 3,8 2,13 3,7 3,6 2,7 3,7 3,12 2,5 3,4 3,5 2,4 3,5 3,8 2,9 h 3 l 3,7 3,5 2,4 3,5 h 3 l 2,4 3,3 h 3 l 2,-1 3,6 3,5 2,2 3,-2 3,6 2,4 h 3 l 3,-1 2,2 3,4 3,2 2,-5 3,2 3,4 2,5 3,3 3,-5 2,-1 3,2 3,4 3,4 2,2 3,-1 3,-1 h 2 l 3,-1 3,4 2,2 3,-1 3,-1 2,1 3,1 3,2 2,-2 3,-2 3,-2 2,-1 3,3 3,3 2,3 3,1 3,-1 2,-1 3,-1 3,1 2,1 3,-1" /></g></g></g><g
         id="g6629"><g
           clip-path="url(#clipPath6635)"
           id="g6631"><g
             transform="matrix(1.0777802,0,0,-1.0778337,462.36771,26842.32)"
             id="g6637" /></g></g><g
         id="g6639"><g
           transform="matrix(1.0777802,0,0,-1.0778337,462.36771,26842.32)"
           id="g6641" /><g
           transform="matrix(6.0355692,0,0,6.0358686,7415.1278,8223.8207)"
           id="g6643"><g
             id="g6645"><text
               id="text6649"
               style="font-variant:normal;font-weight:normal;font-size:25px;font-family:Arial;-inkscape-font-specification:ArialForCAE;writing-mode:lr-tb;fill:#000000;fill-opacity:1;fill-rule:nonzero;stroke:none"><tspan
                 id="tspan6647"
                 y="0"
                 x="0 6.9375 15.25 29.140625 43.03125 49.96875 56.90625 76.34375 94.390625">freq, GHz</tspan></text>
</g></g><g
           transform="matrix(0,-6.0358686,6.0355692,0,5255.2563,6778.4457)"
           id="g6651"><g
             id="g6653"><text
               id="text6657"
               style="font-variant:normal;font-weight:normal;font-size:25px;font-family:Arial;-inkscape-font-specification:ArialForCAE;writing-mode:lr-tb;fill:#ff0000;fill-opacity:1;fill-rule:nonzero;stroke:none"><tspan
                 id="tspan6655"
                 y="0"
                 x="0 13.890625 30.5625 38.875 55.546875 63.859375 77.75 84.6875 98.578125 106.89062">dB(S(1,1))</tspan></text>
</g></g></g><g
         id="g6659"><g
           clip-path="url(#clipPath6665)"
           id="g6661"><g
             transform="matrix(1.0777802,0,0,-1.0778337,462.36771,26842.32)"
             id="g6667" /><g
             id="g6669"><path
               id="path6671"
               style="fill:#0000ff;fill-opacity:1;fill-rule:nonzero;stroke:none"
               d="m 5716.5462,5771.749 1.0778,-113.1725 7.5444,1.0778 -3.2333,339.5176 -5.3889,-1.0778 z" /><path
               id="path6673"
               style="fill:#0000ff;fill-opacity:1;fill-rule:nonzero;stroke:none"
               d="m 5719.7795,5528.1586 -3.2333,137.9627 7.5445,1.0779 3.2333,-137.9627 z" /></g><g
             transform="matrix(1.0777802,0,0,-1.0778337,462.36771,26842.32)"
             id="g6675"><path
               id="path6677"
               style="fill:none;stroke:#0000ff;stroke-width:7;stroke-linecap:square;stroke-linejoin:bevel;stroke-miterlimit:10;stroke-dasharray:none;stroke-opacity:1"
               d="m 4882,19774 1,62 3,47 2,-99 3,-33 3,41 2,-1 3,-48 3,7 2,36 3,-10 3,-37 3,-12 2,2 3,2 3,-2 2,-6 3,10 3,15 h 2 l 3,-15 h 3 l 2,-7 3,9 3,8 2,-17 3,4 h 3 l 2,3 3,6 3,-7 2,-5 3,-3 3,-2 2,-13 3,7 3,6 2,1 3,-5 3,13 3,-6 2,-4 3,11 3,-9 2,-4 h 3 l 3,3 2,-7 3,6 3,5 2,2 3,-1 3,1 2,-2 3,-3 3,-4 2,5 3,1 3,3 2,5 3,-7 3,-5 h 2 l 3,1 3,-1 h 2 l 3,1 3,2 3,2 2,5 3,-3 3,-1 2,1 3,-5 3,-4 2,-4 h 3 l 3,7 2,6 3,-2 3,-6 2,-3 3,5 3,3 2,2 h 3 l 3,-2 2,5 3,-2 3,-7 2,-5 h 3 l 3,2 2,1 3,-2 3,2 3,1 2,1 3,-1 3,-2 2,5 3,-2 3,-4 2,1 3,2 3,1 h 2 l 3,-1 3,3 h 2 3 3 l 2,-2 3,-2 3,1 2,1 3,-1 3,-1 2,3 3,3 3,-1 h 2 l 3,1 h 3 3 l 2,-4 3,-1 3,3 2,2 3,-5 3,2 2,-2 3,-1 h 3 l 2,-1 h 3 l 3,-1 h 2 l 3,1 3,-1 2,1 3,1 h 3 2 l 3,2 3,1 2,-1 3,-1 h 3 l 2,1 3,3 3,-1 3,-1 2,1 3,1 3,-1 2,-4 h 3 l 3,2 h 2 3 l 3,-1 2,-2 3,-2 3,2 h 2 3 l 3,-1 2,2 3,-1 h 3 2 l 3,4 3,-2 2,-2 3,-2 h 3 l 2,1 3,1 3,1 3,1 h 2 l 3,-2 h 3 2 l 3,-2 h 3 2 3 3 l 2,1 h 3 3 l 2,-1 3,2 3,-2 h 2 3 l 3,1 2,-1 3,-2 3,-1 h 2 l 3,3 3,1 h 2 l 3,-1 3,-1 h 3 2 l 3,-1 h 3 l 2,2 h 3 l 3,-1 2,-1 3,-1 3,3 2,1 3,-1 3,-3 2,-1 3,1 3,-1 2,-3 3,-3 3,-1 2,1 h 3 3 l 2,3 3,1 3,-1 2,-2 3,-3 3,-3 3,-1 2,2 3,-2 3,-2 2,-2 3,-2 h 3 2 l 3,-3 3,-4 2,-2 3,-7 3,-4 2,-3 3,-3 3,-4 2,-6 3,-5 3,-3 2,-6 3,-9 3,-10 2,-11 3,-10 3,-12 2,-14 3,-14 3,-16 3,-17 2,-22 3,-24 3,-25 2,-24 3,-19 3,-15 2,-12 3,-13 3,-1 2,7 3,7 3,2 2,18 3,17 3,14 2,15 3,20 3,16 2,13 3,12 3,9 2,11 3,10 3,10 2,9 3,5 3,6 3,4 2,4 3,5 3,5 2,6 3,5 3,6 2,-1 3,1 3,2 2,3 3,1 3,1 h 2 l 3,1 3,2 2,2 h 3 l 3,-2 2,2 3,-1 3,1 h 2 3 l 3,1 2,-2 3,-1 3,2 h 3 l 2,-4 3,-4 3,-2 2,-4 3,1 h 3 l 2,-1 3,-2 3,-4 2,-1 3,-3 3,-3 h 2 l 3,-5 3,-4 2,-3 3,-5 3,-5 2,-3 3,-4 3,-5 2,-5 3,-3 3,-4 2,-6 3,-9 3,-7 3,-8 2,-9 3,-8 3,-8 2,-7 3,-9 3,-11 2,-9 3,-12 3,-13 2,-12 3,-12 3,-15 2,-17 3,-18 3,-16 2,3 3,-4 3,-14 2,-25 3,-21 3,-18 2,-11 3,-5 3,-5 h 2 3 l 3,-3 h 3 2 l 3,2 3,4 2,9 3,9 3,12 2,11 3,10 3,21 2,10 3,9 3,10 2,10 3,4 3,9 2,11 3,7 3,7 2,9 3,8 3,7 2,8 3,6 3,7 2,6 h 3 l 3,7 3,5 h 2 l 3,-6 3,14 2,3 3,4 3,10 2,1 3,3 h 3 l 2,-2 3,5 h 3 l 2,2 3,3 3,3 2,-1 3,1 3,1 h 2 l 3,1 3,-2 h 2 l 3,3 3,2 2,-4 h 3 l 3,2 3,-2 2,1 h 3 l 3,-1 2,-1 3,-3 h 3 l 2,-1 3,-2 h 3 l 2,-1 3,-4 3,-3 2,3 3,-1 3,-2 2,-1 3,1 3,-3 2,-2 3,1 3,1 2,-7 3,-1 3,-1 2,-1 3,1 3,-4 3,-2 h 2 l 3,-1 3,-2 h 2 l 3,2 3,2 2,2 3,-2 3,-2 2,1 3,2 3,1 h 2 l 3,-1 3,-2 2,8 3,3 3,4 2,2 3,1 3,-1 2,3 3,5 3,2 2,2 3,2 3,1 3,4 2,5 3,6 3,6 2,3 3,1 3,2 2,-1 3,2 3,8 2,4 3,4 3,2 h 2 l 3,3 3,3 2,4 3,4 3,3 h 2 l 3,2 3,4 2,3 3,1 3,4 2,4 3,1 3,3 3,3 2,2 h 3 l 3,6 2,1 h 3 l 3,1 2,3 3,2 h 3 2 l 3,4 3,3 2,-1 3,-2 h 3 l 2,1 3,5 3,3 2,2 3,-1 3,4 2,-1 3,-1 3,1 2,-2 3,1 h 3 3 l 2,4 3,1 3,1 h 2 l 3,2 3,-1 h 2 l 3,1 3,3 h 2 l 3,-3 3,-2 2,-1 3,5 3,-1 2,-2 3,-1 3,2 2,-2 h 3 3 l 2,2 h 3 l 3,-2 2,-5 3,-5 h 3 l 3,3 2,-1 3,-2 3,1 h 2 l 3,-3 3,-1 2,2 h 3 l 3,-4 2,-3 h 3 l 3,-3 2,-3 3,-1 3,-2 2,-2 3,-1 h 3 l 2,-1 3,-2 3,-6 2,-4 3,-3 3,-3 h 2 l 3,-6 3,-5 3,-4 2,-4 3,-4 3,-4 2,-6 3,-7 3,-4 2,-6 3,-3 3,-2 2,-13 3,-4 3,-9 2,-13 3,-9 3,-4 2,-10 3,-11 3,-10 2,-14 3,-11 3,-10 2,-11 3,-16 3,-23 2,-22 3,-22 3,-26 3,-17 2,-27 3,-31 3,-25 2,-40 3,-46 3,-49 2,-53 3,-70 3,-80 2,-97 3,-126 3,-195 2,12 3,115 3,123 2,95 3,43 3,61 2,52 3,39 3,42 2,40 3,27 3,18 2,20 3,14 3,1 h 3 l 2,12 3,6 3,2 2,3 3,3 3,-8 2,1 3,4 3,7 2,7 3,8 3,16 2,15 3,8 3,16 2,12 3,15 3,20 2,20 3,21 3,15 2,12 3,17 3,19 2,16 3,11 3,6 3,14 2,14 3,11 3,9 2,6 3,11 3,9 2,7 3,7 3,8 2,9 3,7 3,3 2,3 3,3 3,4 2,4 3,6 3,2 2,2 3,3 3,3 2,-1 3,1 3,4 2,8 h 3 3 l 3,1 h 2 l 3,-2 3,-2 2,-1 h 3 l 3,2 2,-1 3,1 3,1 2,-3 3,-7 3,-1 2,-1 3,-4 3,-2 2,-5 3,-4 3,-4 2,-4 3,-6 3,-5 2,-3 3,-3 3,-16 2,-8 3,-7 3,-11 3,-7 2,-5 3,-8 3,-13 2,-15 3,-11 3,-14 2,-16 3,-16 3,-21 2,-20 3,-18 3,-18 2,-26 3,-26 3,-25 2,-25 3,-24 3,-25 2,-27 3,-24 3,-14 2,-21 h 3 l 3,6 2,5 3,20 3,21 3,27 2,30 3,26 3,15 2,21 3,21 3,13 2,22 3,20 3,17 2,12 3,12 3,13 2,13 3,12 3,7 2,10 3,8 3,9 2,11 3,5 3,4 2,4 3,4 3,2 2,2 3,2 3,3 3,-1 2,6 3,5 3,1 2,-6 h 3 l 3,3 2,3 h 3 3 l 2,-4 3,-5 3,-4 2,-2 h 3 l 3,-1 2,-2 3,-5 3,-1 2,-5 3,-8 3,-8 2,-3 3,-7 3,-6 2,-5 3,-9 3,-4 3,-5 2,-7 3,-12 3,-8 2,-8 3,-8 3,-9 2,-11 3,-6 3,-10 2,-14 3,-9 3,-9 2,-10 3,-13 3,-17 2,-4 3,-8 3,-8 2,-8 3,-4 3,-3 2,3 3,4 3,-4 2,17 3,13 3,9 3,12 2,18 3,20 3,17 2,11 3,17 3,15 2,13 3,14 3,16 2,12 3,12 3,13 2,15 3,10 3,9 2,9 3,9 3,12 2,6 3,6 3,9 2,7 3,8 3,6 2,6 3,8 3,3 3,3 2,4 3,6 3,2 2,4 3,4 3,2 2,4 3,1 3,1 2,2 3,5 3,2 2,1 3,3 3,5 h 2 3 3 l 2,1 3,-2 3,3 2,3 h 3 l 3,-2 2,2 h 3 l 3,-1 3,1 2,2 3,-3 3,-2 2,1 3,1 3,-1 2,-1 h 3 3 l 2,-1 3,-3 3,-4 2,-4 3,1 h 3 l 2,-1 3,-3 3,-3 2,-7 3,-5 3,-1 h 2 l 3,-5 3,-8 2,-7 3,-6 3,-3 3,-8 2,-10 3,-9 3,-9 2,-12 3,-8 3,-8 2,-12 3,-15 3,-15 2,-14 3,-11 3,-9 2,-14 3,-9 3,-5 2,-9 h 3 l 3,5 2,8 3,9 3,12 2,13 3,12 3,10 2,21 3,12 3,13 3,16 2,12 3,10 3,9 2,10 3,11 3,5 2,6 3,7 3,9 2,8 3,5 3,6 2,8 3,8 3,4 2,2 3,2 3,2 h 2 l 3,3 3,3 2,3 h 3 l 3,2 2,2 3,2 3,4 h 3 2 l 3,2 3,1 2,2 h 3 3 l 2,-1 h 3 l 3,-3 h 2 l 3,4 3,-1 2,1 3,1 3,2 2,2 3,-3 3,-2 2,-1 3,-2 3,-1 2,-2 3,-1 3,-1 2,-1 3,-5 3,-4 3,-2 2,1 3,-2 3,-4 2,-5 3,-6 3,-3 2,-3 3,-4 3,-6 2,-7 3,-5 3,-7 2,-10 3,-11 3,-12 2,-12 3,-12 3,-14 2,-10 3,-17 3,-18 2,-15 3,-13 3,-24 2,-22 3,-18 3,-17 3,-11 h 2 l 3,7 3,9 2,12 3,19 3,22 2,21 3,19 3,18 2,16 3,17 3,21 2,14 3,13 3,11 2,8 3,11 3,10 2,8 3,6 3,6 2,6 3,8 3,10 2,5 3,4 3,3 3,3 2,2 3,5 3,4 2,2 3,1 3,-2 2,1 3,2 3,2 2,1 3,3 3,1 2,1 3,1 3,-1 2,-1 3,-1 3,2 2,3 h 3 l 3,1 2,3 3,-1 3,1 h 2 3 3 l 3,4 h 2 3 l 3,1 2,-2 3,3 h 3 l 2,-1 3,-3 h 3 l 2,-3 3,-1 3,4 2,-4 3,-1 3,2 2,2 3,-3 3,-2 2,-1 3,-1 3,-3 2,3 3,-2 3,-3 2,-2 h 3 l 3,-2 3,-3 2,-1 3,-2 h 3 l 2,-3 3,-4 3,-1 2,-6 3,-4 3,-4 2,-5 3,-1 3,-6 2,-8 3,-10 3,-6 2,-9 3,-9 3,-8 2,-9 3,-13 3,-14 2,-16 3,-17 3,-21 2,-22 3,-28 3,-37 3,-35 2,-35 3,-40 3,-49 2,-62 3,-70 3,-64 2,-45 3,-16 3,52 2,69 3,63 3,52 2,47 3,44 3,35 2,30 3,34 3,26 2,20 3,17 3,18 2,15 3,12 3,12 2,12 3,10 3,12 3,3 2,-2 3,7 3,2 2,6 3,8 3,6 2,4 3,6 3,3 2,-1 3,2 h 3 2 l 3,3 3,3 2,-1 3,3 3,1 2,-5 3,1 h 3 l 2,-2 3,-1 3,3 2,-4 h 3 l 3,3 3,-2 2,1 3,1 3,1 h 2 l 3,2 3,-2 2,-3 h 3 l 3,-5 2,2 3,-1 3,-2 2,9 3,-1 3,-4 2,1 3,14 3,-2 2,2 3,4 3,3 2,-4 3,6 3,5 2,2 3,7 3,1 3,3 2,5 3,3 3,3 2,1 h 3 l 3,-1 2,12 3,5 h 3 l 2,-2 3,1 3,3 2,4 3,2 3,1 2,2 3,1 3,-1 2,-4 3,2 3,3 2,5 3,4 3,-3 2,1 3,1 3,1 h 3 2 3 3 l 2,1 3,-1 3,4 h 2 l 3,-2 3,-2 2,3 3,4 h 3 l 2,-8 3,3 3,-1 h 2 l 3,2 3,3 2,2 h 3 l 3,-2 2,-2 3,2 3,1 2,1 3,-2" /></g></g></g><g
         id="g6679"><g
           clip-path="url(#clipPath6685)"
           id="g6681"><g
             transform="matrix(1.0777802,0,0,-1.0778337,462.36771,26842.32)"
             id="g6687" /></g></g><g
         id="g6689"><g
           transform="matrix(1.0777802,0,0,-1.0778337,462.36771,26842.32)"
           id="g6691" /><g
           transform="matrix(0,-6.0358686,6.0355692,0,5104.367,6778.4457)"
           id="g6693"><g
             id="g6695"><text
               id="text6699"
               style="font-variant:normal;font-weight:normal;font-size:25px;font-family:Arial;-inkscape-font-specification:ArialForCAE;writing-mode:lr-tb;fill:#0000ff;fill-opacity:1;fill-rule:nonzero;stroke:none"><tspan
                 id="tspan6697"
                 y="0"
                 x="0 13.890625 30.5625 38.875 55.546875 63.859375 77.75 84.6875 98.578125 106.89062">dB(S(3,3))</tspan></text>
</g></g><g
           transform="matrix(7.1995718,0,0,7.199929,597.09023,4755.9986)"
           id="g6701"><g
             id="g6703"><text
               id="text6707"
               style="font-variant:normal;font-weight:normal;font-size:25px;font-family:Arial;-inkscape-font-specification:ArialForCAE;writing-mode:lr-tb;fill:#000000;fill-opacity:1;fill-rule:nonzero;stroke:none"><tspan
                 id="tspan6705"
                 y="0"
                 x="0 18.046875 31.9375 37.484375 51.375 58.3125 65.25 80.515625 86.0625 91.609375 98.546875 106.85938 120.75 127.6875">Rojo: Filtro 1</tspan></text>
</g></g><g
           transform="matrix(7.1995718,0,0,7.199929,1809.593,4755.9986)"
           id="g6709"><g
             id="g6711"><text
               id="text6715"
               style="font-variant:normal;font-weight:normal;font-size:25px;font-family:Arial;-inkscape-font-specification:ArialForCAE;writing-mode:lr-tb;fill:#000000;fill-opacity:1;fill-rule:nonzero;stroke:none"><tspan
                 id="tspan6713"
                 y="0"
                 x="0 16.671875 29.171875 43.0625 48.609375 55.546875 62.484375 77.75 83.296875 88.84375 95.78125 104.09375 117.98438 124.92188">Azul: Filtro 2</tspan></text>
</g></g></g></g></g></svg>